<?xml version="1.0" standalone="no"?>
<!DOCTYPE svg PUBLIC "-//W3C//DTD SVG 20010904//EN"
 "http://www.w3.org/TR/2001/REC-SVG-20010904/DTD/svg10.dtd">
<svg version="1.0" xmlns="http://www.w3.org/2000/svg"
 width="900.000000pt" height="900.000000pt" viewBox="0 0 900.000000 900.000000"
 preserveAspectRatio="xMidYMid meet">
<metadata>
Created by potrace 1.10, written by Peter Selinger 2001-2011
</metadata>
<g transform="translate(0.000000,900.000000) scale(0.100000,-0.100000)"
fill="#f1ebe3" stroke="none">
<path d="M1705 8574 c-79 -13 -116 -24 -185 -58 -44 -20 -40 -18 -234 -152
-89 -61 -206 -141 -261 -179 -55 -38 -127 -87 -160 -110 -33 -23 -98 -68 -145
-100 -47 -32 -125 -86 -175 -120 -49 -34 -119 -82 -155 -107 -162 -111 -185
-129 -212 -169 -16 -24 -31 -54 -34 -68 -3 -15 -11 -51 -19 -81 -85 -329 -84
-870 1 -1320 38 -201 46 -239 60 -286 8 -28 14 -60 14 -71 0 -11 6 -39 14 -64
7 -24 21 -71 30 -104 9 -33 23 -82 31 -110 22 -77 134 -425 150 -467 8 -21 21
-55 29 -75 8 -21 21 -57 30 -80 9 -24 22 -60 30 -80 24 -64 107 -264 137 -331
16 -34 29 -64 29 -67 0 -15 314 -653 362 -735 11 -19 31 -55 45 -80 13 -25 34
-61 45 -80 11 -19 31 -55 45 -80 13 -25 33 -58 44 -75 10 -16 23 -39 29 -50 6
-11 19 -33 30 -50 10 -16 25 -40 32 -52 74 -128 318 -495 447 -673 131 -181
354 -468 456 -585 29 -33 79 -91 112 -130 184 -215 527 -552 724 -712 168
-136 293 -230 357 -268 9 -6 44 -28 77 -50 85 -56 86 -57 240 -141 156 -86
393 -179 528 -209 61 -13 134 -4 182 23 20 11 182 88 378 181 101 48 177 84
412 196 66 32 163 78 215 102 362 171 416 204 501 303 97 114 169 306 169 447
-1 111 -54 266 -140 408 -16 28 -33 57 -37 65 -3 8 -26 48 -51 88 -24 40 -41
80 -38 88 5 12 182 14 1283 14 705 0 1306 4 1340 9 152 22 322 149 392 294 65
133 61 7 61 2197 0 2159 2 2064 -54 2180 -68 142 -160 223 -336 296 -44 18
-134 19 -2815 22 l-2770 2 -22 28 c-12 15 -22 30 -23 34 0 4 -33 62 -73 130
-40 68 -76 130 -80 138 -4 8 -13 24 -20 35 -7 11 -30 51 -52 90 -22 38 -45 79
-52 90 -7 11 -16 27 -20 35 -4 8 -39 69 -78 135 -39 66 -74 127 -78 135 -111
231 -310 378 -556 409 -46 6 -89 10 -95 10 -6 -1 -47 -7 -91 -15z m233 -441
c40 -25 83 -65 93 -88 5 -11 18 -33 29 -50 11 -16 23 -37 27 -45 4 -8 26 -46
48 -85 23 -38 44 -77 48 -85 4 -8 16 -28 27 -45 11 -16 23 -37 27 -45 4 -8 32
-58 63 -110 31 -52 59 -102 63 -110 4 -8 13 -24 20 -35 7 -11 37 -63 67 -115
30 -52 60 -103 65 -112 6 -9 23 -41 39 -70 16 -29 36 -64 46 -78 9 -14 41 -69
69 -122 47 -87 52 -103 52 -162 1 -80 -5 -99 -48 -158 -24 -34 -62 -64 -129
-105 -53 -32 -108 -66 -122 -75 -15 -10 -34 -21 -42 -25 -8 -4 -33 -19 -55
-33 -22 -14 -49 -30 -60 -37 -290 -172 -410 -251 -443 -291 -36 -44 -37 -48
-37 -126 0 -46 8 -108 18 -143 9 -35 24 -91 34 -125 18 -70 92 -298 114 -353
4 -11 18 -45 29 -75 44 -111 84 -207 111 -268 16 -34 29 -65 29 -68 0 -6 89
-193 152 -319 63 -126 164 -315 210 -390 10 -16 21 -37 25 -45 13 -28 145
-244 191 -315 26 -38 49 -75 52 -81 7 -15 153 -228 205 -299 24 -33 60 -83 80
-112 19 -29 41 -58 48 -65 7 -7 37 -44 67 -83 111 -143 291 -343 408 -456 191
-185 229 -189 472 -53 36 20 99 55 140 77 41 22 89 48 105 58 17 10 50 28 75
40 25 13 77 42 115 64 39 23 111 61 160 86 105 51 167 57 245 22 43 -20 130
-97 130 -115 0 -5 27 -54 60 -109 33 -55 60 -101 60 -103 0 -2 26 -48 58 -103
32 -54 61 -105 65 -113 4 -8 16 -28 27 -45 11 -16 23 -37 27 -45 4 -8 32 -58
63 -110 31 -52 59 -102 63 -110 4 -8 11 -22 17 -30 14 -21 95 -162 103 -180 4
-8 16 -28 27 -45 52 -81 107 -195 115 -235 9 -49 -23 -141 -66 -193 -37 -43
-53 -52 -264 -152 -66 -32 -169 -81 -230 -110 -60 -29 -155 -74 -210 -100 -55
-26 -140 -67 -190 -90 -49 -24 -139 -66 -200 -95 -60 -28 -138 -65 -172 -83
l-62 -31 -43 18 c-24 10 -61 25 -83 33 -114 42 -213 92 -365 182 -174 104
-275 175 -461 326 -251 203 -620 578 -890 906 -145 176 -387 504 -524 710
-149 224 -133 199 -225 349 -119 193 -169 276 -181 304 -5 12 -23 44 -40 71
-16 28 -37 64 -45 80 -8 17 -37 71 -64 120 -27 50 -93 178 -145 285 -101 204
-108 218 -150 315 -15 33 -36 80 -47 105 -28 62 -41 93 -78 185 -18 44 -39 94
-46 112 -8 17 -14 36 -14 42 0 6 -5 19 -10 29 -20 34 -152 422 -185 542 -10
36 -23 83 -30 105 -32 98 -85 328 -119 510 -35 187 -66 493 -66 655 0 111 21
343 40 440 l17 85 54 38 c30 21 79 55 109 76 30 21 84 58 120 83 36 25 103 71
150 103 297 203 349 239 475 327 146 102 267 180 293 189 41 13 168 2 200 -18z
m6056 -1251 c3 -5 -36 -36 -87 -70 -83 -55 -194 -130 -392 -267 -38 -27 -117
-81 -175 -120 -58 -39 -140 -96 -183 -126 -43 -30 -86 -58 -95 -64 -9 -5 -33
-22 -52 -36 -19 -15 -93 -66 -165 -114 -118 -80 -171 -117 -385 -264 -36 -24
-112 -77 -170 -116 -113 -77 -203 -139 -318 -219 -41 -28 -84 -58 -97 -66 -31
-20 -242 -164 -330 -225 -150 -104 -165 -113 -182 -109 -10 3 -63 36 -118 74
-284 195 -359 246 -380 260 -13 8 -59 39 -102 69 -43 30 -125 87 -183 126 -58
39 -135 92 -172 118 -38 26 -98 68 -135 94 -38 26 -115 79 -173 118 -58 39
-140 96 -183 126 -43 30 -89 61 -102 69 -13 8 -56 38 -97 66 -40 28 -122 84
-183 126 -60 41 -141 96 -180 123 -38 26 -102 70 -142 97 l-72 49 2 145 2 144
2422 0 c1332 0 2424 -4 2427 -8z m506 -2110 c0 -2092 4 -1961 -58 -2007 -27
-20 -45 -20 -1417 -23 -764 -2 -1404 0 -1422 3 -25 4 -36 15 -53 48 -23 46
-22 44 -148 257 -110 187 -197 277 -327 340 -251 122 -445 104 -750 -70 -22
-12 -64 -36 -94 -52 -30 -16 -76 -41 -103 -56 -89 -48 -162 -88 -221 -120 -31
-18 -64 -32 -71 -32 -15 0 -204 196 -271 280 -19 25 -98 128 -175 230 -77 102
-143 190 -148 195 -4 6 -48 71 -96 145 -49 74 -97 147 -107 162 -11 15 -19 29
-19 32 0 3 -13 24 -29 48 -16 24 -37 59 -48 78 -10 19 -30 53 -43 75 -14 23
-30 50 -37 60 -7 11 -23 40 -36 65 -14 25 -41 74 -61 110 -37 68 -209 411
-245 490 -38 84 -123 285 -131 310 -5 14 -18 50 -30 80 -11 30 -37 102 -56
160 -19 58 -41 125 -49 150 -32 96 -34 93 151 205 90 55 177 108 192 117 15
10 36 22 47 28 11 6 32 18 47 28 61 39 172 108 195 121 32 17 33 16 203 -103
74 -52 205 -142 290 -200 85 -58 187 -127 225 -154 130 -89 259 -178 375 -257
63 -43 149 -102 190 -130 118 -82 207 -142 320 -220 116 -79 297 -203 405
-278 395 -273 400 -275 468 -276 70 -1 101 13 249 118 60 42 120 83 133 91 30
19 311 211 470 322 39 26 140 96 225 154 85 58 211 144 280 191 69 48 172 119
230 158 58 39 134 92 170 116 174 121 212 148 310 214 58 39 148 101 200 136
223 153 270 186 370 254 58 39 137 93 175 120 39 27 90 62 115 78 25 17 61 43
80 58 47 36 111 69 122 63 4 -3 8 -863 8 -1912z"/>
</g>
</svg>
