<?xml version="1.0" standalone="no"?>
<!DOCTYPE svg PUBLIC "-//W3C//DTD SVG 20010904//EN"
 "http://www.w3.org/TR/2001/REC-SVG-20010904/DTD/svg10.dtd">
<svg version="1.0" xmlns="http://www.w3.org/2000/svg"
 width="900.000000pt" height="900.000000pt" viewBox="0 0 900.000000 900.000000"
 preserveAspectRatio="xMidYMid meet">
<metadata>
Created by potrace 1.10, written by Peter Selinger 2001-2011
</metadata>
<g transform="translate(0.000000,900.000000) scale(0.100000,-0.100000)"
fill="#f1ebe3" stroke="none">
<path d="M4430 8988 c-1 -7 -15 -22 -32 -33 -47 -30 -70 -68 -75 -122 -6 -58
13 -106 57 -148 29 -28 36 -30 110 -30 74 0 81 2 110 30 44 42 63 90 57 148
-5 54 -28 92 -75 122 -17 11 -31 26 -32 33 0 8 -19 12 -60 12 -41 0 -60 -4
-60 -12z"/>
<path d="M5410 8579 c-42 -23 -302 -280 -332 -328 -15 -24 -21 -50 -21 -90 0
-95 53 -156 138 -162 102 -7 94 -11 271 163 90 89 164 167 164 173 0 7 7 19
16 26 26 22 15 118 -20 163 -54 71 -145 95 -216 55z"/>
<path d="M3435 8576 c-44 -16 -53 -24 -86 -68 -35 -49 -39 -110 -10 -166 10
-20 88 -105 173 -188 140 -138 157 -151 197 -157 90 -12 152 15 191 81 26 42
26 111 1 160 -27 53 -298 316 -345 336 -43 18 -77 19 -121 2z"/>
<path d="M1284 8510 c-56 -17 -91 -64 -104 -138 -13 -76 -5 -171 18 -221 8
-18 33 -46 55 -62 32 -23 50 -29 93 -29 44 0 59 5 95 33 66 50 79 84 79 202
-1 109 -16 150 -72 194 -30 24 -118 35 -164 21z"/>
<path d="M7568 8511 c-38 -12 -68 -35 -89 -68 -16 -23 -19 -48 -19 -151 0
-138 6 -154 74 -203 74 -54 169 -35 231 47 26 34 27 41 28 152 0 131 -14 171
-72 205 -36 21 -115 30 -153 18z"/>
<path d="M4425 8303 c-29 -7 -74 -53 -93 -93 -14 -30 -17 -73 -17 -290 0 -182
4 -265 13 -291 19 -55 75 -105 122 -112 71 -9 116 3 154 41 57 57 61 79 61
362 0 280 -3 296 -63 354 -26 24 -40 29 -94 32 -35 1 -72 0 -83 -3z"/>
<path d="M754 7996 c-25 -21 -46 -51 -57 -83 -17 -47 -17 -53 -1 -94 9 -24 34
-61 56 -81 l41 -38 126 0 126 0 39 34 c27 22 45 49 56 82 15 44 15 54 3 94
-10 29 -30 58 -56 82 l-42 38 -126 0 -125 0 -40 -34z"/>
<path d="M1596 7985 l-46 -44 0 -76 0 -76 46 -44 46 -45 129 0 130 0 49 50
c50 49 50 49 50 115 0 66 0 66 -50 115 l-49 50 -130 0 -129 0 -46 -45z"/>
<path d="M7047 8011 c-37 -24 -55 -51 -71 -103 -20 -69 10 -149 71 -189 23
-16 48 -19 151 -19 117 0 125 1 157 26 48 36 75 87 75 139 0 52 -27 103 -75
139 -32 25 -40 26 -157 26 -103 0 -128 -3 -151 -19z"/>
<path d="M7892 8002 c-99 -82 -98 -199 2 -276 33 -25 41 -26 155 -26 131 0
158 9 202 64 17 22 21 40 21 101 0 61 -4 79 -21 101 -44 56 -70 64 -204 64
-118 -1 -123 -1 -155 -28z"/>
<path d="M1253 7641 c-22 -16 -47 -44 -55 -62 -43 -91 -30 -263 24 -318 54
-55 169 -65 227 -20 55 44 70 86 71 194 0 118 -13 152 -79 203 -36 27 -51 32
-95 32 -43 0 -61 -6 -93 -29z"/>
<path d="M7540 7646 c-71 -49 -80 -71 -80 -207 0 -137 10 -165 70 -202 47 -29
141 -30 188 -2 60 36 74 74 74 206 0 112 -1 119 -27 153 -60 78 -155 100 -225
52z"/>
<path d="M4295 7124 c-5 -2 -46 -10 -90 -18 -97 -18 -159 -34 -202 -52 -17 -8
-36 -14 -43 -14 -7 0 -24 -6 -38 -14 -31 -15 -150 -71 -172 -80 -30 -12 -157
-98 -220 -149 -134 -108 -248 -236 -341 -382 -45 -71 -133 -243 -142 -280 -12
-46 -36 -100 -44 -102 -6 -2 -28 14 -49 35 -68 68 -207 166 -299 211 -50 25
-102 50 -117 58 -14 7 -36 13 -48 13 -12 0 -31 5 -43 12 -12 7 -44 15 -72 19
-27 4 -79 12 -115 18 -36 6 -96 10 -135 10 -109 0 -372 -52 -399 -79 -5 -5
-17 -10 -27 -10 -9 0 -37 -11 -63 -25 -25 -14 -67 -36 -93 -50 -66 -36 -132
-87 -218 -170 -66 -64 -152 -168 -168 -205 -4 -8 -16 -28 -27 -45 -11 -16 -23
-37 -26 -45 -4 -8 -19 -43 -35 -78 -16 -34 -29 -68 -29 -76 0 -7 -7 -27 -15
-42 -8 -16 -15 -41 -15 -55 0 -14 -7 -48 -15 -75 -12 -40 -15 -133 -15 -531 0
-342 3 -490 12 -510 6 -15 14 -53 18 -83 9 -66 19 -96 81 -235 46 -104 156
-256 237 -329 13 -12 44 -40 69 -64 25 -23 49 -42 53 -42 5 0 22 -12 39 -26
l31 -26 0 -109 0 -109 -37 -16 c-21 -9 -58 -20 -83 -24 -44 -7 -96 -19 -195
-45 -109 -29 -142 -37 -185 -44 -94 -17 -251 -69 -310 -103 -8 -4 -22 -11 -30
-14 -8 -3 -24 -10 -35 -16 -10 -6 -40 -22 -65 -35 -25 -13 -56 -34 -70 -46
-14 -12 -45 -38 -70 -57 -107 -81 -258 -266 -313 -384 -58 -124 -73 -169 -109
-316 -8 -30 -13 -284 -15 -766 l-3 -722 44 -48 44 -49 728 -3 c658 -3 730 -4
747 -19 16 -15 18 -37 17 -252 0 -130 -1 -258 0 -284 0 -45 4 -52 50 -98 l50
-49 1025 0 c972 0 1026 1 1054 18 67 41 102 122 81 188 -18 56 -44 89 -87 110
-35 17 -71 19 -438 22 -262 2 -404 7 -412 14 -10 8 -13 93 -13 382 -1 388 -7
454 -44 492 -43 43 -70 54 -134 54 -53 0 -69 -4 -98 -27 -70 -53 -68 -43 -74
-498 l-5 -410 -299 -3 c-215 -2 -302 1 -313 9 -11 10 -13 78 -10 403 4 397 17
614 43 674 8 18 14 44 14 57 0 13 7 41 16 62 9 21 23 52 29 68 34 82 60 133
81 162 13 17 24 34 24 37 0 15 89 132 152 200 63 68 196 180 238 199 8 4 29
16 45 26 57 37 167 91 184 91 9 0 26 7 37 15 10 8 28 15 39 15 10 0 37 6 60
14 44 15 118 34 180 47 22 4 59 12 83 18 23 6 61 16 85 22 23 6 60 14 82 19
138 31 180 42 196 50 10 6 30 10 46 10 15 0 48 6 73 14 127 40 164 37 177 -12
3 -13 18 -48 34 -79 16 -31 29 -61 29 -67 0 -6 14 -40 31 -76 30 -63 44 -96
73 -162 16 -37 42 -96 81 -183 15 -33 34 -76 42 -95 26 -60 40 -93 72 -163 17
-37 31 -70 31 -74 0 -4 14 -37 31 -73 17 -36 37 -81 46 -100 8 -19 21 -48 29
-63 8 -16 14 -33 14 -38 0 -22 53 -91 92 -119 59 -43 120 -42 180 3 41 31 73
85 135 227 8 19 21 48 29 63 8 16 14 34 14 42 0 7 7 18 15 25 8 7 15 19 15 28
0 8 12 40 26 71 38 83 64 140 109 246 32 74 48 111 57 125 4 8 11 22 14 30 3
8 12 28 20 43 7 16 14 33 14 38 0 5 14 40 31 77 18 37 38 81 45 97 7 17 27 60
43 98 17 37 31 71 31 77 0 5 9 18 20 28 22 20 49 18 150 -14 25 -8 59 -14 75
-14 17 -1 41 -7 55 -15 14 -8 38 -14 54 -15 28 0 88 -15 187 -46 26 -8 57 -14
69 -14 12 0 43 -6 69 -14 25 -8 82 -22 126 -31 44 -10 91 -22 105 -27 14 -6
41 -14 60 -19 72 -16 179 -63 270 -118 19 -11 44 -25 55 -30 11 -5 29 -18 40
-28 11 -10 38 -32 60 -48 22 -17 52 -42 68 -57 40 -39 187 -212 187 -220 0 -4
20 -36 45 -72 25 -37 45 -70 45 -75 0 -5 8 -24 17 -43 30 -61 33 -68 54 -135
11 -38 28 -90 37 -118 14 -44 16 -112 17 -560 l0 -510 -300 0 -300 0 -5 410
c-6 455 -4 445 -74 498 -29 23 -45 27 -98 27 -64 0 -91 -11 -134 -54 -37 -38
-43 -104 -44 -492 0 -274 -3 -373 -12 -382 -9 -9 -116 -12 -419 -12 -226 0
-429 -4 -458 -10 -94 -18 -140 -74 -141 -172 0 -55 2 -58 49 -107 l50 -51
1059 0 c1176 0 1094 -5 1150 67 l27 36 6 296 c3 163 6 297 7 298 1 1 335 3
743 5 l740 3 55 58 54 59 0 704 c0 609 -2 704 -15 704 -9 0 -16 14 -20 38 -3
20 -12 57 -20 82 -8 25 -15 53 -15 62 0 10 -7 34 -16 55 -35 83 -43 100 -61
139 -55 118 -206 304 -313 384 -25 19 -56 44 -68 57 -13 12 -61 41 -105 63
-45 23 -89 45 -97 49 -73 38 -218 85 -310 102 -43 7 -76 15 -185 44 -99 26
-151 38 -195 45 -25 4 -62 15 -82 24 l-38 16 0 109 0 109 31 26 c17 14 34 26
39 26 4 0 28 19 53 42 25 24 56 52 69 64 81 73 191 225 237 329 62 139 72 169
81 235 4 30 12 68 18 83 9 20 12 168 12 510 0 398 -3 491 -15 531 -8 27 -15
61 -15 75 0 14 -7 39 -15 55 -8 15 -15 35 -15 42 0 8 -13 42 -29 76 -16 35
-31 70 -35 78 -3 8 -15 29 -26 45 -11 17 -23 37 -27 45 -16 37 -102 141 -168
205 -86 83 -152 134 -217 170 -27 14 -69 36 -94 50 -26 14 -54 25 -63 25 -10
0 -22 5 -27 10 -15 15 -102 38 -229 61 -83 15 -136 19 -215 15 -99 -4 -134
-10 -240 -36 -25 -6 -61 -15 -80 -19 -19 -4 -44 -12 -55 -18 -11 -5 -60 -30
-110 -54 -90 -45 -233 -144 -293 -206 -37 -37 -60 -42 -68 -15 -71 224 -197
432 -367 605 -165 169 -318 273 -527 357 -30 12 -70 28 -88 36 -18 8 -41 14
-52 14 -11 0 -37 6 -57 14 -85 31 -216 46 -393 45 -96 0 -179 -2 -185 -5z
m337 -348 c64 -8 122 -18 129 -22 8 -4 31 -11 54 -15 76 -14 280 -103 306
-135 6 -8 16 -14 21 -14 26 0 193 -149 269 -240 137 -164 216 -336 264 -573
15 -78 20 -188 9 -200 -6 -6 -51 16 -109 54 -16 10 -39 23 -50 29 -11 6 -33
19 -50 29 -16 11 -52 32 -80 46 -27 15 -64 38 -82 51 -17 13 -36 24 -42 24 -6
0 -27 12 -48 26 -21 14 -47 30 -58 35 -11 5 -33 18 -50 28 -78 51 -120 66
-176 65 -30 -1 -63 -5 -72 -10 -9 -6 -68 -60 -130 -122 -63 -62 -117 -112
-120 -112 -4 0 -33 -19 -64 -42 -173 -127 -397 -211 -638 -237 -140 -16 -597
-15 -613 1 -37 37 7 417 63 553 39 94 83 183 108 217 15 21 27 40 27 44 0 15
96 127 171 200 80 77 197 163 259 190 8 3 42 19 75 34 106 49 135 60 160 60
13 0 36 5 52 12 27 11 193 34 263 36 19 1 88 -5 152 -12z m-2310 -742 c15 -8
37 -14 49 -14 20 0 91 -32 207 -93 53 -28 214 -197 246 -257 99 -188 99 -190
7 -238 -114 -58 -331 -144 -411 -162 -19 -4 -48 -13 -63 -19 -16 -6 -41 -11
-56 -11 -16 0 -44 -6 -62 -14 -19 -7 -79 -16 -134 -19 -55 -4 -116 -11 -135
-17 -44 -13 -619 -13 -640 0 -12 7 -12 21 -2 92 7 46 12 97 12 114 0 64 89
268 146 334 16 19 39 47 50 61 29 39 144 131 194 157 25 12 52 26 60 31 60 32
85 41 109 41 15 0 33 6 39 13 27 26 332 27 384 1z m4715 0 c12 -8 33 -14 47
-14 21 0 46 -10 106 -41 8 -5 35 -19 60 -31 50 -26 165 -118 194 -157 11 -14
34 -42 50 -61 57 -66 146 -270 146 -334 0 -17 5 -68 12 -114 10 -71 10 -85 -2
-92 -21 -13 -596 -13 -640 0 -19 6 -80 13 -135 17 -55 3 -115 12 -134 19 -18
8 -46 14 -62 14 -15 0 -40 5 -56 11 -15 6 -44 15 -63 19 -33 8 -53 14 -140 45
-74 27 -210 86 -271 117 -92 48 -92 50 7 238 32 60 193 229 246 257 116 61
188 93 207 93 12 0 32 6 44 12 48 27 342 28 384 2z m-2006 -489 c22 -14 50
-30 62 -36 12 -5 36 -18 52 -29 17 -11 39 -24 50 -30 11 -6 34 -19 50 -29 17
-11 48 -29 70 -41 22 -12 59 -35 83 -51 24 -16 47 -29 52 -29 5 0 28 -13 52
-29 24 -16 61 -39 83 -51 22 -12 54 -29 70 -39 l30 -18 3 -284 c2 -177 -2
-308 -9 -349 -6 -36 -14 -85 -18 -110 -4 -25 -13 -55 -19 -67 -7 -12 -12 -32
-12 -45 0 -13 -7 -32 -15 -42 -8 -11 -15 -30 -15 -42 0 -13 -4 -25 -9 -29 -6
-3 -22 -31 -36 -61 -42 -89 -122 -205 -193 -278 -49 -50 -165 -149 -211 -178
-51 -33 -223 -118 -239 -118 -9 0 -26 -7 -36 -15 -11 -8 -31 -15 -44 -15 -13
0 -33 -5 -45 -12 -28 -14 -124 -27 -262 -35 -104 -5 -180 2 -295 28 -25 6 -58
13 -75 16 -16 3 -39 12 -50 19 -11 8 -26 14 -34 14 -21 0 -159 68 -198 96 -17
13 -35 24 -38 24 -13 0 -171 128 -206 167 -55 60 -145 183 -173 234 -93 173
-119 251 -155 469 -15 93 -14 513 1 528 9 9 99 12 342 12 204 0 346 5 371 11
22 6 65 14 95 18 89 13 173 37 268 77 18 8 41 14 51 14 10 0 24 7 31 15 7 8
16 15 21 15 20 0 151 69 234 124 92 61 110 75 199 158 28 26 57 48 64 48 7 0
31 -11 53 -25z m-2097 -790 c0 -289 -2 -334 -17 -362 -9 -18 -17 -40 -17 -50
0 -28 -87 -195 -122 -234 -81 -91 -97 -106 -143 -146 -56 -47 -198 -121 -290
-149 -83 -26 -373 -26 -422 -1 -18 10 -40 17 -50 18 -10 0 -38 11 -63 24 -25
13 -58 30 -75 38 -16 8 -59 37 -94 65 -35 29 -68 52 -72 52 -5 0 -14 11 -21
24 -7 13 -29 42 -48 63 -20 21 -47 60 -60 86 -14 27 -35 67 -47 90 -12 23 -22
50 -22 60 -1 10 -7 30 -15 45 -14 29 -23 106 -35 297 -11 179 -35 165 277 166
141 1 322 5 402 9 134 7 179 13 315 41 28 5 70 14 95 18 25 5 80 20 123 35 43
14 84 26 92 26 8 0 31 7 52 16 21 9 53 22 71 30 66 28 108 46 132 59 57 30 55
39 54 -320z m3163 321 c28 -14 72 -34 135 -60 18 -8 50 -21 71 -30 21 -9 47
-16 58 -16 11 0 29 -5 40 -11 25 -13 108 -37 169 -49 25 -5 68 -14 95 -19 136
-28 181 -34 315 -41 80 -4 260 -8 401 -9 216 -1 259 -3 269 -16 23 -28 7 -347
-22 -430 -5 -16 -13 -43 -17 -60 -5 -16 -17 -47 -27 -67 -10 -20 -30 -58 -43
-83 -13 -26 -39 -63 -58 -83 -19 -21 -41 -49 -49 -64 -8 -16 -18 -28 -23 -28
-4 0 -37 -23 -72 -52 -35 -28 -77 -57 -94 -65 -16 -8 -50 -25 -75 -38 -25 -13
-53 -24 -63 -24 -10 -1 -32 -8 -50 -18 -49 -25 -339 -25 -422 1 -92 28 -234
102 -290 149 -46 40 -62 55 -143 146 -35 39 -122 206 -122 234 0 10 -8 32 -17
50 -14 27 -17 79 -21 349 -3 174 -2 324 1 332 8 20 17 20 54 2z m-2953 -1144
c6 -17 9 -22 60 -102 52 -82 173 -224 247 -290 78 -70 168 -140 180 -140 4 0
21 -14 38 -31 31 -31 31 -31 31 -145 0 -112 0 -114 -23 -114 -21 0 -68 20
-107 45 -17 11 -71 32 -115 45 -16 5 -64 20 -105 34 -41 14 -86 26 -100 26
-14 0 -45 6 -70 14 -59 19 -124 35 -180 46 -25 4 -58 13 -73 19 -16 6 -41 11
-56 11 -16 0 -49 9 -75 20 l-46 21 0 109 0 109 36 28 c90 70 183 157 234 219
30 37 63 76 72 85 20 21 43 16 52 -9z m2777 -29 c44 -62 169 -186 244 -243
l60 -46 3 -112 3 -111 -38 -17 c-21 -9 -58 -20 -83 -24 -51 -8 -128 -26 -180
-43 -19 -6 -53 -14 -75 -18 -22 -4 -59 -12 -82 -18 -24 -6 -62 -16 -85 -21
-76 -19 -108 -29 -213 -67 -22 -8 -47 -19 -55 -24 -58 -32 -124 -60 -136 -55
-11 4 -14 31 -14 120 l0 114 30 24 c16 12 59 43 96 68 86 58 212 177 282 265
31 39 59 72 63 75 3 3 30 44 59 93 33 55 58 87 69 87 10 0 33 -21 52 -47z
m-3978 -448 c52 -22 318 -21 382 1 73 24 78 16 73 -136 -4 -116 -6 -130 -36
-191 -18 -36 -32 -71 -32 -77 0 -6 -6 -23 -14 -39 -8 -15 -21 -44 -29 -63 -8
-19 -22 -51 -30 -70 -8 -19 -37 -86 -64 -149 -26 -63 -52 -113 -58 -112 -10 3
-31 39 -60 106 -10 22 -24 53 -31 68 -8 16 -14 36 -14 46 0 9 -4 21 -9 27 -5
5 -19 34 -31 64 -12 30 -28 70 -36 88 -97 227 -94 215 -94 322 0 76 4 102 16
114 19 20 23 20 67 1z m4712 0 c58 -21 332 -21 382 0 44 19 71 12 79 -20 3
-13 4 -66 2 -117 -4 -94 -13 -124 -95 -308 -9 -19 -21 -48 -28 -65 -7 -16 -19
-46 -27 -65 -9 -19 -30 -71 -48 -115 -41 -101 -67 -151 -77 -147 -12 6 -49 82
-88 182 -10 25 -24 60 -32 77 -7 18 -20 47 -27 65 -16 39 -33 76 -77 178 -29
68 -33 86 -37 198 -3 88 -1 127 8 137 15 18 15 18 65 0z m-2485 -284 c30 -5
68 -14 83 -20 44 -17 442 -14 492 4 22 8 54 15 72 15 17 0 44 5 59 10 50 19
54 5 54 -184 -1 -161 -2 -174 -25 -221 -14 -27 -25 -53 -25 -57 0 -5 -14 -38
-31 -75 -49 -107 -62 -136 -75 -168 -7 -16 -26 -59 -43 -95 -17 -36 -31 -73
-31 -81 0 -9 -7 -22 -15 -29 -8 -7 -15 -18 -15 -25 0 -8 -7 -26 -15 -42 -23
-44 -75 -162 -75 -170 0 -6 -54 -126 -69 -153 -13 -24 -44 -18 -51 10 -4 14
-19 52 -34 85 -32 72 -51 114 -70 157 -8 18 -28 62 -45 98 -17 36 -31 70 -31
76 0 6 -11 32 -25 58 -13 25 -34 70 -46 99 -12 28 -30 70 -39 92 -25 56 -69
154 -84 190 -7 17 -21 47 -30 68 -13 30 -16 71 -16 201 0 89 3 166 7 170 5 4
21 5 38 2 16 -3 55 -10 85 -15z m-1325 -171 c15 -6 37 -10 50 -10 12 0 36 -7
51 -15 16 -8 43 -15 61 -15 17 0 44 -5 60 -11 15 -7 46 -15 68 -19 111 -20
217 -58 211 -75 -1 -5 -21 -13 -44 -17 -23 -4 -50 -12 -61 -17 -11 -6 -32 -11
-47 -11 -14 0 -47 -6 -73 -14 -70 -22 -131 -37 -186 -46 -27 -4 -63 -12 -80
-18 -77 -27 -132 -42 -148 -42 -11 0 -31 -6 -45 -14 -115 -59 -145 -53 -108
21 8 15 22 45 30 65 9 21 24 55 33 75 26 60 41 96 54 131 20 55 30 60 93 51
30 -5 67 -14 81 -19z m3460 -23 c9 -23 23 -55 30 -72 7 -16 27 -66 45 -110 18
-44 40 -95 48 -112 12 -23 13 -36 6 -43 -11 -11 -13 -11 -117 34 -21 9 -48 16
-60 16 -12 1 -33 7 -47 15 -14 8 -38 14 -53 15 -16 0 -38 5 -50 12 -12 6 -42
15 -67 19 -25 3 -67 12 -95 19 -27 6 -77 19 -110 27 -33 8 -82 21 -109 29 -26
8 -59 14 -72 14 -13 0 -24 6 -24 13 0 20 99 56 215 77 22 4 53 12 68 19 16 6
43 11 60 11 18 0 45 7 61 15 15 8 38 15 51 15 12 0 36 5 53 11 38 13 123 27
138 22 6 -2 19 -23 29 -46z m-4712 0 c10 -23 25 -55 33 -70 8 -16 14 -36 14
-46 0 -9 4 -21 9 -26 5 -6 19 -35 31 -65 12 -30 28 -68 35 -85 8 -16 34 -82
60 -145 68 -167 95 -231 116 -273 5 -9 16 -38 25 -63 l15 -45 -40 -54 c-23
-30 -41 -59 -41 -65 0 -5 -4 -10 -9 -10 -5 0 -13 -9 -16 -21 -4 -12 -17 -36
-30 -55 -22 -32 -46 -80 -81 -161 -8 -18 -20 -48 -28 -65 -8 -18 -22 -58 -31
-88 -10 -30 -22 -68 -27 -85 -6 -16 -14 -59 -19 -95 -5 -36 -13 -78 -19 -94
-5 -16 -10 -84 -10 -152 0 -67 -4 -134 -10 -149 l-10 -25 -257 2 -258 3 -5
421 -5 421 -29 37 c-31 41 -94 75 -139 76 -37 0 -95 -30 -132 -70 l-30 -31 -5
-427 -5 -427 -175 0 -175 0 0 580 c1 525 2 584 18 619 9 21 17 49 17 61 0 13
6 36 14 52 8 15 28 57 46 92 73 148 222 298 372 374 51 26 99 47 106 47 8 0
28 6 45 14 35 14 110 35 172 46 22 4 53 12 68 19 16 6 43 11 60 11 18 0 45 7
61 15 15 8 38 15 50 15 11 0 41 7 66 14 25 8 65 15 90 15 44 1 46 -1 63 -42z
m5942 28 c22 -8 52 -15 66 -15 15 0 40 -7 55 -15 16 -8 43 -15 61 -15 17 0 44
-5 60 -11 15 -7 46 -15 68 -19 62 -11 137 -32 172 -46 17 -8 37 -14 45 -14 7
0 55 -21 106 -47 150 -76 299 -226 372 -374 18 -35 38 -77 46 -92 8 -16 14
-39 14 -52 0 -12 8 -40 17 -61 16 -35 17 -94 18 -619 l0 -580 -175 0 -175 0
-5 427 -5 427 -30 31 c-37 40 -95 70 -132 70 -45 -1 -108 -35 -139 -76 l-29
-37 -5 -421 -5 -421 -265 0 -265 0 -6 140 c-8 181 -27 299 -71 430 -5 17 -14
45 -18 64 -5 18 -13 38 -19 44 -6 6 -11 18 -11 28 0 9 -22 59 -49 112 -66 127
-70 133 -116 197 -79 107 -76 95 -42 175 17 38 43 98 59 133 15 34 28 66 28
71 0 5 6 22 14 38 7 15 21 45 30 66 9 20 22 52 30 70 8 17 22 52 32 77 9 25
30 73 46 108 15 34 28 66 28 71 0 5 6 22 14 38 8 15 22 47 32 71 17 41 18 42
63 42 25 -1 64 -7 86 -15z"/>
<path d="M3858 4913 c-76 -8 -138 -106 -122 -196 7 -44 48 -107 69 -107 7 0
18 -7 25 -15 20 -24 115 -20 157 6 105 65 112 210 12 287 -26 21 -83 30 -141
25z"/>
<path d="M5033 4913 c-22 -3 -47 -19 -78 -49 -45 -45 -45 -46 -45 -114 l0 -69
50 -51 c50 -49 52 -50 110 -50 46 0 67 5 99 27 23 15 41 31 41 36 0 6 7 18 16
28 11 12 16 37 16 76 0 120 -78 181 -209 166z"/>
<path d="M4207 4315 c-74 -27 -107 -78 -107 -163 0 -62 1 -64 50 -117 82 -86
212 -140 335 -140 152 0 320 88 376 196 25 50 24 85 -3 136 -28 51 -60 77
-116 93 -50 16 -102 3 -168 -42 -58 -39 -121 -39 -180 1 -42 29 -103 52 -134
50 -8 0 -32 -7 -53 -14z"/>
<path d="M4420 323 c-27 -10 -71 -57 -92 -97 -26 -50 -20 -101 18 -154 38 -53
75 -72 140 -72 82 0 137 41 164 123 23 71 -26 171 -97 198 -26 10 -108 11
-133 2z"/>
</g>
</svg>
