<?xml version="1.0" standalone="no"?>
<!DOCTYPE svg PUBLIC "-//W3C//DTD SVG 20010904//EN"
 "http://www.w3.org/TR/2001/REC-SVG-20010904/DTD/svg10.dtd">
<svg version="1.0" xmlns="http://www.w3.org/2000/svg"
 width="300.000000pt" height="258.000000pt" viewBox="0 0 300.000000 258.000000"
 preserveAspectRatio="xMidYMid meet">
<metadata>
Created by potrace 1.10, written by Peter Selinger 2001-2011
</metadata>
<g transform="translate(0.000000,258.000000) scale(0.100000,-0.100000)"
fill="#4d4da3" stroke="none">
<path d="M150 2448 c-26 -14 -53 -37 -65 -58 -20 -35 -20 -49 -20 -1102 0
-1066 0 -1067 21 -1095 11 -15 36 -38 54 -50 l33 -23 1043 0 c1021 0 1044 0
1054 19 13 25 13 27 -6 45 -14 14 -122 16 -1043 16 l-1028 0 -21 23 -22 23 0
1045 c0 929 2 1047 16 1067 15 21 21 22 194 22 195 0 230 6 230 43 0 44 -13
47 -210 47 -173 0 -189 -2 -230 -22z"/>
<path d="M716 2454 c-21 -20 -20 -30 4 -54 20 -20 33 -20 1049 -20 l1030 0 15
-22 c14 -20 16 -138 16 -1068 l0 -1047 -23 -21 c-22 -21 -32 -22 -204 -22
-152 0 -184 -3 -197 -16 -19 -18 -19 -20 -6 -45 10 -18 23 -19 206 -19 125 0
203 4 217 11 48 25 76 62 87 113 7 35 10 382 8 1081 -3 1013 -3 1031 -23 1065
-12 21 -39 44 -65 58 l-44 22 -1027 0 c-921 0 -1029 -2 -1043 -16z"/>
<path d="M361 2176 c-8 -10 -10 -251 -9 -892 l3 -879 1135 0 1135 0 3 879 c1
641 -1 882 -9 892 -17 21 -2241 21 -2258 0z m2189 -623 c0 -469 -2 -545 -14
-533 -8 8 -129 152 -271 320 -223 265 -260 305 -284 305 -29 0 -9 22 -526
-587 -49 -59 -93 -107 -97 -107 -4 -1 -105 71 -224 159 -119 88 -225 160 -236
160 -11 0 -115 -85 -238 -195 -120 -107 -221 -195 -224 -195 -3 0 -6 275 -6
610 l0 610 1060 0 1060 0 0 -547z m-280 -348 l279 -330 1 -197 0 -198 -1060 0
-1060 0 0 139 0 139 227 202 c126 111 233 204 240 207 6 2 110 -68 230 -156
123 -91 227 -161 240 -161 14 0 41 23 80 69 427 503 529 621 536 618 5 -1 134
-151 287 -332z"/>
<path d="M805 1891 c-49 -22 -99 -77 -115 -126 -20 -61 -9 -148 26 -198 37
-54 119 -97 184 -97 133 0 241 132 216 264 -10 54 -65 127 -115 153 -55 29
-138 31 -196 4z m173 -90 c84 -60 70 -191 -24 -233 -131 -57 -250 95 -162 207
44 57 127 68 186 26z"/>
</g>
</svg>
