<svg xmlns="http://www.w3.org/2000/svg" xmlns:xlink="http://www.w3.org/1999/xlink" version="1.1" width="1000" height="1000" viewBox="0 0 1000 1000" xml:space="preserve">
<desc>Created with Fabric.js 3.5.0</desc>
<defs>
</defs>
<g transform="matrix(2.2747 0 0 2.2747 500.0027 389.0065)" id="130511">
<g style="" vector-effect="non-scaling-stroke">
		<g transform="matrix(0.1 0 0 -0.1 -0.0021 0.0013)">
<path style="stroke: none; stroke-width: 1; stroke-dasharray: none; stroke-linecap: butt; stroke-dashoffset: 0; stroke-linejoin: miter; stroke-miterlimit: 4; is-custom-font: none; font-file-url: none; fill: rgb(255,255,255); fill-rule: nonzero; opacity: 1;" transform=" translate(-2179.3789, -4681.2377)" d="M 2255 6171 c -111 -26 -235 -76 -299 -119 c -30 -20 -91 -73 -137 -117 c -73 -69 -92 -95 -139 -188 l -55 -108 l -175 -132 c -145 -109 -214 -170 -405 -362 c -126 -127 -234 -238 -240 -247 c -5 -9 -58 -77 -118 -152 c -112 -141 -307 -421 -307 -442 c 0 -13 69 -45 155 -70 c 76 -22 240 -22 350 1 c 68 14 214 69 355 133 c 46 21 257 23 313 4 c 37 -13 97 -62 97 -79 c 0 -5 9 -14 20 -21 c 31 -19 28 -86 -6 -117 c -30 -27 -96 -51 -169 -60 c -27 -3 -61 -8 -74 -11 l -24 -5 l 24 -25 c 13 -14 59 -43 102 -63 c 82 -41 84 -47 18 -70 c -63 -21 -173 -12 -386 29 c -217 42 -266 47 -329 29 c -44 -12 -39 -20 24 -38 c 94 -27 173 -101 275 -256 c 39 -60 94 -136 121 -167 c 94 -109 222 -196 342 -231 c 29 -9 88 -32 132 -52 c 115 -52 204 -69 294 -55 c 39 6 134 15 211 20 c 159 9 198 21 340 100 c 178 101 287 125 516 117 c 126 -4 170 -10 242 -31 c 96 -29 127 -32 127 -14 c 0 7 -30 87 -67 178 c -45 112 -85 192 -123 250 c -51 75 -58 93 -64 150 c -4 36 -14 92 -23 125 c -16 60 -16 60 11 113 c 14 28 29 52 33 52 c 9 0 93 -49 122 -72 c 13 -10 26 -18 30 -18 c 3 0 4 47 3 104 l -4 105 l 44 10 c 180 45 286 99 384 197 c 55 54 82 91 113 156 c 94 194 93 368 -3 563 c -40 82 -108 167 -121 153 c -3 -3 -12 -45 -20 -94 c -22 -130 -61 -244 -84 -244 c -5 0 -27 24 -49 53 c -22 29 -59 76 -83 103 l -42 49 l 39 5 c 22 3 39 10 39 18 c 0 7 -48 63 -106 125 l -106 112 l -6 73 c -3 44 -15 92 -28 119 c -51 105 -181 192 -349 234 c -75 19 -105 21 -252 17 l -167 -5 l 37 29 c 20 17 51 37 67 45 c 17 9 43 26 58 39 c 16 13 35 24 43 24 c 25 0 15 18 -18 30 c -20 7 -111 14 -228 16 c -165 3 -207 1 -275 -15 z m 18 -234 c -149 -153 -202 -276 -190 -442 c 6 -90 36 -168 103 -267 c 30 -43 54 -86 54 -94 c 0 -26 -37 -88 -72 -120 c -100 -95 -217 -88 -312 17 c -81 89 -116 226 -96 383 c 21 174 86 310 198 423 c 81 82 154 126 276 170 c 151 53 154 48 39 -70 z m 514 -122 c 58 -17 103 -62 103 -101 c 0 -14 -7 -39 -16 -55 c -21 -41 -12 -59 29 -59 c 42 0 129 -25 187 -55 c 54 -27 170 -112 170 -123 c 0 -5 -21 -13 -47 -18 c -25 -5 -48 -14 -50 -20 c -2 -7 26 -33 61 -58 c 88 -62 187 -156 180 -168 c -4 -6 -30 -7 -65 -3 c -69 8 -76 -3 -26 -43 c 56 -46 177 -165 177 -174 c 0 -5 -34 -8 -75 -7 c -42 1 -78 0 -80 -3 c -3 -3 15 -36 40 -73 c 25 -38 45 -75 45 -82 c 0 -9 -17 -13 -55 -13 c -31 0 -55 -4 -55 -10 c 0 -6 9 -28 20 -49 l 19 -38 l -25 -24 c -37 -34 -73 -120 -81 -189 c -3 -33 -9 -62 -12 -65 c -4 -2 -32 5 -64 16 c -32 11 -79 22 -105 26 l -47 6 l 27 -31 c 69 -82 39 -153 -136 -327 c -67 -67 -136 -127 -153 -134 c -36 -14 -39 -22 -23 -52 c 10 -18 6 -19 -102 -19 c -104 0 -114 2 -137 24 c -28 25 -122 91 -143 99 c -9 4 0 17 24 39 c 35 32 72 91 63 100 c -3 3 -31 -8 -63 -24 c -51 -26 -65 -29 -127 -25 c -38 2 -78 7 -87 11 c -13 6 -19 3 -23 -10 c -16 -52 -53 -110 -96 -148 c -46 -41 -166 -112 -175 -103 c -3 2 0 17 6 32 c 6 15 10 80 9 145 c -1 125 5 147 57 217 c 13 17 24 34 24 37 c 0 3 -22 6 -49 6 c -48 0 -49 0 -56 37 c -32 172 -263 311 -480 289 c -63 -6 -109 -18 -307 -79 c -65 -20 -148 -41 -185 -47 c -71 -12 -153 -6 -153 11 c 0 19 180 266 283 389 c 155 186 563 580 599 580 c 7 0 9 -23 5 -72 l -6 -73 l -53 -44 c -138 -115 -512 -520 -495 -537 c 2 -2 53 19 113 47 c 135 64 251 104 346 119 c 83 13 190 10 195 -6 c 2 -5 -37 -29 -87 -51 c -132 -61 -125 -68 73 -83 c 73 -5 142 -13 155 -16 c 29 -8 48 8 78 68 c 27 52 54 73 85 63 c 18 -6 20 -12 14 -39 c -3 -17 -9 -49 -11 -71 c -5 -34 -4 -37 7 -20 c 26 45 77 88 137 116 c 66 32 92 65 92 117 c 0 47 20 56 79 36 c 43 -16 53 -16 75 -4 c 16 8 30 10 36 4 c 5 -5 12 -74 16 -154 c 4 -80 13 -164 21 -188 c 8 -24 12 -46 9 -49 c -10 -10 -76 67 -101 118 c -31 61 -33 84 -6 69 c 31 -16 34 -13 28 35 c -9 65 -33 104 -72 121 c -19 8 -36 14 -38 14 c -2 0 -2 -22 1 -49 c 6 -66 -3 -101 -28 -101 c -10 0 -22 9 -25 20 c -16 50 -45 -7 -53 -102 c -4 -54 -1 -74 16 -110 c 32 -65 89 -104 173 -118 c 62 -11 72 -15 80 -39 c 11 -28 7 -134 -6 -165 c -6 -14 -5 -18 6 -14 c 21 7 56 74 80 150 c 29 94 42 103 148 102 l 86 -1 l -90 43 c -90 43 -135 80 -135 112 c 0 10 19 42 41 72 c 57 76 71 112 75 205 l 4 80 l -14 -63 c -20 -83 -54 -144 -89 -156 c -49 -18 -60 10 -82 216 c -7 67 -22 77 -77 50 c -48 -24 -49 -13 -2 28 c 66 58 121 20 145 -101 c 6 -32 15 -56 20 -53 c 5 3 9 41 9 85 c 0 132 -31 169 -142 169 c -66 0 -68 1 -108 43 c -113 117 -151 233 -115 354 c 20 68 45 97 112 128 c 138 66 340 93 450 60 z m 1031 -828 c -7 -80 -41 -149 -106 -209 c -61 -57 -147 -104 -159 -85 c -15 23 -53 109 -53 119 c 0 7 31 8 91 3 l 91 -7 l -8 24 c -12 39 -10 43 46 89 c 32 25 64 62 75 86 c 11 23 22 42 24 43 c 2 0 1 -28 -1 -63 z m -1455 -254 c 3 -5 -4 -17 -14 -27 c -17 -18 -19 -18 -25 -1 c -9 22 27 48 39 28 z m 67 -149 c 0 -17 -28 -18 -67 -3 l -28 11 l 35 12 c 37 13 60 5 60 -20 z m 618 -683 l -5 -106 l 31 -37 c 32 -38 90 -129 102 -162 c 7 -17 4 -18 -30 -12 c -58 11 -278 7 -338 -5 c -70 -15 -166 -54 -317 -128 c -68 -34 -130 -61 -137 -61 c -26 0 -14 19 32 47 c 25 15 57 38 72 49 c 24 20 25 24 14 49 c -15 33 -11 40 16 26 c 48 -26 75 -14 183 77 c 108 91 105 86 125 187 c 2 11 21 31 42 43 c 21 13 74 57 117 99 c 95 90 100 87 93 -66 z m -712 -20 c 62 -30 71 -46 47 -78 c -28 -38 -47 -43 -31 -9 c 11 24 8 30 -27 66 c -45 46 -44 47 11 21 z m -601 -80 c -3 -11 -38 -50 -77 -86 c -39 -36 -68 -68 -65 -71 c 3 -3 54 -10 114 -15 c 136 -12 187 -28 250 -82 c 47 -40 57 -44 153 -60 c 57 -9 105 -19 108 -22 c 23 -22 -141 -91 -242 -101 c -36 -4 -66 -3 -66 1 c 0 4 9 19 21 33 l 21 27 l -119 6 c -174 10 -257 40 -375 136 c -59 48 -158 155 -158 172 c 0 3 52 4 116 3 c 98 -3 127 0 184 18 c 38 12 83 32 102 45 c 37 26 43 25 33 -4 z m 910 -30 c 0 -8 -25 -27 -55 -43 c -39 -20 -47 -22 -27 -7 c 15 11 27 29 27 39 c 0 10 6 21 13 23 c 20 9 42 3 42 -12 z m -552 -57 c 39 -35 93 -63 190 -98 c 45 -17 69 -44 27 -31 c -12 4 -60 14 -108 24 c -72 15 -99 26 -155 64 c -38 26 -74 47 -80 48 c -11 1 58 27 77 28 c 5 1 27 -15 49 -35 z" stroke-linecap="round"/>
</g>
		<g transform="matrix(0.1 0 0 -0.1 -6.3819 20.3169)">
<path style="stroke: none; stroke-width: 1; stroke-dasharray: none; stroke-linecap: butt; stroke-dashoffset: 0; stroke-linejoin: miter; stroke-miterlimit: 4; is-custom-font: none; font-file-url: none; fill: rgb(255,255,255); fill-rule: nonzero; opacity: 1;" transform=" translate(-2115.581, -4478.081)" d="M 2112 4733 c -6 -12 -12 -47 -12 -77 c 0 -31 -2 -56 -5 -56 c -3 0 -17 7 -30 16 c -14 9 -25 12 -25 6 c 0 -6 21 -54 47 -107 c 46 -95 55 -138 63 -290 c 1 -18 2 -18 10 -3 c 18 30 31 120 31 219 c 1 86 -2 102 -27 155 c -16 32 -31 82 -34 109 c -5 46 -6 48 -18 28 z" stroke-linecap="round"/>
</g>
</g>
</g>
<g transform="matrix(1.7773 0 0 1.7773 500.0073 856.1935)" id="145957">
<g style="" vector-effect="non-scaling-stroke">
		<g transform="matrix(0.1 0 0 -0.1 -162.4768 0)">
<path style="stroke: none; stroke-width: 1; stroke-dasharray: none; stroke-linecap: butt; stroke-dashoffset: 0; stroke-linejoin: miter; stroke-miterlimit: 4; is-custom-font: none; font-file-url: none; fill: rgb(255,255,255); fill-rule: nonzero; opacity: 1;" transform=" translate(-589.2324, -2345)" d="M 185 2840 c -3 -5 -1 -27 6 -49 c 13 -43 -6 -160 -71 -443 c -5 -24 -19 -90 -31 -148 c -25 -121 -32 -154 -57 -268 l -19 -82 l 21 -6 c 12 -3 52 -4 90 -2 l 69 3 l 13 40 c 6 22 24 99 38 170 c 15 72 31 148 36 170 c 5 22 21 96 35 165 c 48 229 48 230 62 218 c 7 -6 13 -19 13 -29 c 0 -10 4 -28 9 -41 c 5 -13 21 -63 36 -113 c 15 -49 35 -112 44 -140 l 17 -50 l 76 -3 c 71 -3 77 -1 94 22 c 11 14 40 53 65 88 c 162 222 199 268 199 250 c 0 -10 -9 -61 -20 -113 c -31 -146 -72 -340 -80 -384 c -4 -22 -17 -84 -30 -139 c -26 -116 -26 -116 71 -116 c 73 0 94 11 102 55 c 4 17 18 84 32 150 c 14 66 30 140 35 165 c 10 53 51 244 80 380 c 38 170 50 242 44 251 c -3 5 -60 9 -128 9 l -122 0 l -30 -32 c -29 -32 -72 -87 -104 -134 c -59 -87 -154 -214 -161 -214 c -4 0 -10 8 -12 18 c -47 178 -94 331 -105 345 c -13 15 -34 17 -163 17 c -86 0 -150 -4 -154 -10 z" stroke-linecap="round"/>
</g>
		<g transform="matrix(0.1 0 0 -0.1 -28.8377 12.45)">
<path style="stroke: none; stroke-width: 1; stroke-dasharray: none; stroke-linecap: butt; stroke-dashoffset: 0; stroke-linejoin: miter; stroke-miterlimit: 4; is-custom-font: none; font-file-url: none; fill: rgb(255,255,255); fill-rule: nonzero; opacity: 1;" transform=" translate(-1925.6237, -2220.5)" d="M 1514 2567 c 5 -29 -1 -42 -56 -117 c -35 -47 -99 -135 -143 -196 c -44 -61 -126 -175 -183 -253 c -57 -77 -101 -145 -97 -151 c 3 -5 44 -10 90 -10 l 83 0 l 119 164 c 65 90 136 189 158 221 c 98 141 127 177 135 169 c 5 -5 20 -52 33 -104 c 14 -52 28 -103 32 -112 c 6 -16 -1 -18 -84 -18 l -91 0 l -75 -71 c -41 -39 -72 -75 -69 -80 c 3 -5 88 -9 188 -9 l 184 0 l 18 -66 c 9 -36 24 -72 31 -80 c 11 -11 51 -14 176 -14 c 89 0 168 4 176 9 c 7 5 17 26 21 47 c 9 45 16 79 65 309 c 20 94 39 181 42 195 c 11 49 16 50 178 50 c 183 0 183 0 161 -87 c -9 -32 -23 -63 -33 -70 c -10 -8 -50 -13 -107 -13 l -89 0 l -68 -71 c -38 -40 -66 -76 -63 -80 c 3 -5 16 -9 29 -9 c 25 0 61 -38 165 -180 c 35 -47 68 -88 74 -92 c 15 -10 254 -10 260 0 c 2 4 -47 66 -110 137 l -115 130 l 61 12 c 125 26 158 73 196 282 c 14 79 14 91 0 124 c -26 65 -42 67 -406 67 c -250 0 -320 -3 -320 -13 c 0 -6 5 -28 10 -47 c 10 -36 9 -51 -29 -225 c -22 -104 -46 -216 -70 -329 c -9 -44 -22 -81 -29 -84 c -6 -2 -12 4 -12 13 c 0 9 -9 44 -19 78 c -25 78 -76 250 -103 342 c -11 39 -35 113 -52 165 l -31 95 l -119 3 l -118 3 l 6 -34 z" stroke-linecap="round"/>
</g>
		<g transform="matrix(0.1 0 0 -0.1 101.1024 12.4916)">
<path style="stroke: none; stroke-width: 1; stroke-dasharray: none; stroke-linecap: butt; stroke-dashoffset: 0; stroke-linejoin: miter; stroke-miterlimit: 4; is-custom-font: none; font-file-url: none; fill: rgb(255,255,255); fill-rule: nonzero; opacity: 1;" transform=" translate(-3225.0247, -2220.0837)" d="M 2940 2590 c 0 -6 7 -27 15 -46 c 13 -31 13 -43 0 -97 c -8 -34 -26 -118 -40 -187 c -83 -397 -85 -404 -72 -412 c 14 -9 561 -11 593 -2 c 15 4 24 19 32 56 c 7 27 12 60 12 74 l 0 24 l -208 0 c -115 0 -211 2 -214 5 c -6 6 16 127 26 144 c 5 7 40 11 98 11 l 90 0 l 64 66 c 35 36 64 72 64 80 c 0 11 -26 14 -140 14 l -141 0 l 7 38 c 4 20 10 48 14 62 l 6 25 l 216 3 l 215 2 l 11 25 c 6 13 14 47 18 75 l 7 50 l -337 0 c -224 0 -336 -3 -336 -10 z" stroke-linecap="round"/>
</g>
		<g transform="matrix(0.1 0 0 -0.1 177.4919 12.5)">
<path style="stroke: none; stroke-width: 1; stroke-dasharray: none; stroke-linecap: butt; stroke-dashoffset: 0; stroke-linejoin: miter; stroke-miterlimit: 4; is-custom-font: none; font-file-url: none; fill: rgb(255,255,255); fill-rule: nonzero; opacity: 1;" transform=" translate(-3988.9197, -2220)" d="M 3670 2591 c 0 -5 7 -25 16 -46 c 14 -35 14 -44 -6 -134 c -31 -138 -49 -219 -61 -276 c -6 -27 -15 -66 -19 -85 c -30 -125 -41 -184 -36 -197 c 4 -11 24 -13 88 -11 c 99 4 96 -1 129 165 c 12 62 26 118 30 125 c 6 9 52 -32 156 -140 l 148 -152 l 92 0 c 50 0 99 3 107 6 c 17 6 0 27 -211 259 c -46 49 -83 97 -83 107 c 0 9 55 67 122 130 c 68 62 157 146 198 185 l 75 73 l -120 0 l -120 0 l -35 -33 c -206 -191 -282 -258 -286 -254 c -3 3 -1 29 5 59 c 16 80 40 188 46 209 c 6 18 -1 19 -114 19 c -67 0 -121 -4 -121 -9 z" stroke-linecap="round"/>
</g>
</g>
</g>
</svg>
