<svg viewBox="4.496788008565311 4.494 293.576017130621 254.232"
     version="1.0" xmlns="http://www.w3.org/2000/svg"
     style="max-height: 500px"
     width="293.576017130621"
     height="254.232">
    <path d="M148.65 10.2C144.15 17.3 11 248.4 11 249.1c0 .5 60.3.9 140 .9 77 0 140-.2 140-.45 0-1.1-139.15-241.1-139.95-241.35-.5-.2-1.6.7-2.4 2zm11.95 18 8.25 14.3-17.55.25c-9.7.15-17.8.1-18-.15-.25-.2 3.5-7.2 8.3-15.55 5.75-9.9 9.05-14.8 9.7-14.15.55.55 4.75 7.45 9.3 15.3zm18.75 32.6c4.9 8.4 8.7 15.5 8.45 15.75-.3.25-17.2.35-37.6.2l-37.1-.25 9.05-15.75 9.05-15.8 19.6.3 19.65.25 8.9 15.3zm19.7 33.9c4.65 8.1 8.6 15.1 8.8 15.5.15.45-25.6.8-57.25.8H93.05l7.1-12.25c3.9-6.75 7.95-13.7 9.05-15.5l1.95-3.25h79.45l8.45 14.7zm14.05 24.45c1.5 2.55 3.85 6.6 5.15 9 1.35 2.4 4.15 7.2 6.2 10.65 4.5 7.65 4.7 7.35-5.3 7l-8.15-.3 4.1-6.8c2.25-3.75 3.85-7.05 3.6-7.35-1.2-1.2-25.6 11.1-27.3 13.75-.25.5-18.25.9-39.95.9h-39.4l-5.75-3.65c-6.65-4.3-22-11.65-23.25-11.15-.5.15.95 3.35 3.15 7.1 4.9 8.1 5.05 7.85-5 7.5l-8.05-.3 9.1-15.75L91.3 114l59.55.25 59.5.25 2.75 4.65zM101.2 163.5c4.8 8.25 8.8 15.35 8.8 15.75 0 .4-12.6.75-28 .75s-28-.3-28-.65c0-.35 3.95-7.55 8.75-16L71.5 148l10.45.25 10.4.25 8.85 15zm76.5-6.55c-4.7 4.95-10.45 12.15-12.85 16L160.5 180h-19.15l-5.4-8.25c-2.9-4.55-8.85-11.75-13.15-16l-7.85-7.75h71.3l-8.55 8.95zm61.2 6.8 9.05 15.75-14.55.3c-8 .15-20.8.15-28.45 0l-13.9-.3 9.2-15.75L209.5 148h20.3l9.1 15.75zm-117.3 34.5 9.3 15.75H82.45c-26.65 0-48.45-.2-48.45-.45 0-.3 2.2-4.2 4.85-8.75 2.65-4.55 6.75-11.55 9.05-15.55l4.2-7.3 30.15.3 30.1.25 9.25 15.75zm36.95-14.5c-.35.95-1.7 4.65-3.05 8.25-1.35 3.55-2.95 8.5-3.6 11l-1.1 4.5-2.35-8c-1.25-4.4-3.2-10.15-4.35-12.75l-2.05-4.75h8.6c7.75 0 8.5.15 7.9 1.75zm100.05 14 9.15 15.75-23.8.25c-13.1.15-34.9.15-48.4 0l-24.6-.25 9.3-15.75L189.5 182h30l30 .05 9.1 15.7zm-117.8 33c4.45 7.55 8.4 14.55 8.75 15.5.65 1.65-3 1.75-67.5 1.75h-68.2l1.95-3.25c1.05-1.8 4.75-8.2 8.2-14.25 3.45-6.05 6.7-11.55 7.25-12.25.75-.95 12.25-1.25 51.2-1.25h50.2l8.15 13.75zm137.6 1.35c4.8 8.3 8.55 15.3 8.35 15.5-.25.25-30.9.3-68.1.15l-67.7-.25 7.6-13c4.2-7.15 8.25-14 9.05-15.25l1.45-2.25H269.7l8.7 15.1z"
          fill="#000"/></svg>
