<?xml version="1.0" standalone="no"?>
<!DOCTYPE svg PUBLIC "-//W3C//DTD SVG 20010904//EN"
 "http://www.w3.org/TR/2001/REC-SVG-20010904/DTD/svg10.dtd">
<svg version="1.0" xmlns="http://www.w3.org/2000/svg"
 width="300.000000pt" height="300.000000pt" viewBox="0 0 300.000000 300.000000"
 preserveAspectRatio="xMidYMid meet">
<metadata>
Created by potrace 1.10, written by Peter Selinger 2001-2011
</metadata>
<g transform="translate(0.000000,300.000000) scale(0.050000,-0.050000)"
fill="" stroke="none">
<path fill="#285119" d="M1758 5767 c-93 -58 -106 -100 -114 -381 l-9 -264 -52 -19 c-1562
-562 -1523 -543 -1523 -704 0 -75 1380 -3845 1425 -3894 67 -72 156 -77 315
-18 l140 52 0 -68 c0 -44 18 -90 52 -129 l52 -62 953 0 c800 0 969 -5 1053
-31 1211 -372 2181 1197 1317 2131 l-104 113 338 928 c354 971 358 985 309
1080 -41 77 -29 72 -885 381 l-744 268 -1 226 c0 259 -26 345 -117 393 -93 48
-2327 46 -2405 -2z m2337 -1570 l5 -1412 -50 -10 -50 -9 -5 1181 -5 1181 -50
25 c-27 14 -76 31 -108 37 -85 18 -172 114 -172 190 0 147 32 140 -681 140
-495 0 -642 -6 -648 -25 -4 -14 -13 -48 -19 -75 -9 -44 -40 -62 -226 -129
-119 -42 -227 -81 -241 -86 -27 -10 -38 375 -12 402 8 7 519 11 1135 8 l1122
-5 5 -1413z m-1681 853 c26 -66 201 -543 389 -1060 188 -517 368 -1010 399
-1095 l57 -155 -57 0 c-57 0 -57 0 -402 955 -390 1077 -359 1016 -515 1009
-139 -6 -226 39 -276 145 -48 102 -72 98 -692 -130 -608 -224 -581 -207 -566
-359 14 -136 -31 -219 -151 -280 -140 -71 -192 115 485 -1740 l449 -1230 142
-3 c226 -4 339 -156 264 -357 -16 -43 -269 -144 -319 -127 -28 9 -1379 3698
-1380 3767 -1 33 47 57 294 147 162 58 624 227 1025 374 836 307 792 300 854
139z m2331 -252 c245 -89 573 -208 730 -265 226 -82 285 -111 285 -140 0 -29
-612 -1743 -632 -1770 -12 -16 -88 22 -88 43 0 13 104 308 230 654 263 719
255 683 151 750 -114 71 -149 149 -132 292 16 141 62 113 -554 338 -417 152
-455 170 -455 213 0 60 -49 72 465 -115z m-1539 -654 c380 -168 475 -682 181
-976 l-73 -72 -184 507 c-102 279 -192 529 -200 555 -18 59 127 52 276 -14z
m-991 -601 c271 -139 417 -493 309 -748 l-23 -55 -222 0 c-281 0 -339 -39
-339 -228 0 -129 -18 -137 -186 -80 -485 165 -533 860 -76 1097 156 81 394 87
537 14z m2191 -194 c110 -109 174 -263 174 -420 l0 -109 -150 0 -150 0 0 310
c0 347 -2 344 126 219z m273 -739 c868 -230 1141 -1329 482 -1934 -641 -588
-1661 -264 -1871 594 -194 789 596 1551 1389 1340z m-1212 -180 l-148 -150
-599 0 -600 0 0 150 0 150 747 0 747 0 -147 -150z m-252 -335 c-5 -14 -30 -81
-55 -150 l-45 -125 -498 0 -497 0 0 150 0 150 552 0 c434 0 550 -5 543 -25z
m-135 -590 l0 -145 -480 0 -480 0 0 139 c0 167 -54 151 514 151 l446 0 0 -145z
m82 -435 c21 -55 43 -116 49 -135 11 -33 -24 -35 -540 -35 l-551 0 0 140 0
141 502 -6 502 -5 38 -100z m314 -490 l140 -140 -748 0 -748 0 0 140 0 140
608 0 608 0 140 -140z"/>
<path fill="#7B5F19" d="M1988 3283 c-82 -51 -116 -140 -102 -261 18 -151 -46 -222 -126 -142
-48 48 -52 125 -9 161 41 34 29 98 -25 134 -60 39 -153 -48 -175 -165 -8 -43
-32 -91 -53 -105 -81 -57 -28 -178 67 -154 32 8 73 -2 117 -29 204 -125 378 7
378 287 0 115 5 131 38 131 64 0 87 -50 72 -158 -12 -86 -8 -102 27 -120 72
-39 163 47 163 154 0 21 22 48 50 60 100 46 45 182 -62 155 -39 -10 -65 -2
-99 30 -64 60 -184 71 -261 22z"/>
<path fill="#7B5F19" d="M4279 2417 c-949 -123 -1087 -1450 -184 -1769 535 -188 1123 172
1203 738 83 587 -431 1107 -1019 1031z m457 -256 c283 -151 442 -467 387 -766
-164 -884 -1453 -783 -1453 115 0 557 580 911 1066 651z"/>
<path fill="#7B5F19" d="M4321 2081 c-12 -21 -21 -56 -21 -78 0 -24 -28 -56 -71 -81 -201
-118 -144 -402 93 -461 231 -57 282 -241 67 -241 -65 0 -88 15 -165 109 -34
41 -56 39 -104 -9 -64 -64 0 -190 121 -241 37 -15 59 -39 59 -63 0 -64 39
-116 87 -116 60 0 93 36 93 102 0 40 14 59 61 78 262 109 187 445 -119 533
-145 42 -178 88 -111 156 44 43 134 39 194 -9 66 -51 128 -51 156 1 29 55 -18
129 -112 173 -53 26 -69 46 -69 86 0 97 -116 142 -159 61z"/>
</g>
</svg>
