<?xml version="1.0" standalone="no"?>
<!DOCTYPE svg PUBLIC "-//W3C//DTD SVG 20010904//EN"
 "http://www.w3.org/TR/2001/REC-SVG-20010904/DTD/svg10.dtd">
<svg version="1.0" xmlns="http://www.w3.org/2000/svg"
 width="900.000000pt" height="900.000000pt" viewBox="0 0 900.000000 900.000000"
 preserveAspectRatio="xMidYMid meet">
<g transform="translate(0.000000,900.000000) scale(0.100000,-0.100000)"
fill="" stroke="none">
<path fill="#911E26" d="M4826 8370 c-57 -26 -118 -91 -139 -147 -11 -26 -25 -61 -32 -78 -46
-105 -50 -122 -50 -205 1 -74 4 -90 27 -125 14 -23 52 -59 83 -80 l57 -40 237
-3 c189 -3 240 -1 248 10 7 8 13 86 15 208 2 107 7 202 11 211 11 21 -180 212
-245 245 -59 30 -153 32 -212 4z"/>
<path fill="#911E26" d="M6476 8370 c-21 -10 -85 -64 -143 -121 l-104 -104 6 -45 c3 -25 8
-125 11 -223 6 -175 6 -177 29 -183 13 -3 121 -4 242 -2 l218 3 47 28 c59 35
100 87 121 151 26 77 22 102 -44 266 -61 150 -94 194 -175 230 -59 25 -153 26
-208 0z"/>
<path fill="#911E26" d="M5674 8241 c-39 -10 -115 -64 -140 -99 -56 -78 -55 -53 -52 -737 l3
-630 264 -3 c186 -2 268 1 277 9 20 17 20 1179 0 1254 -19 74 -57 127 -121
169 -49 33 -65 38 -128 41 -40 3 -86 1 -103 -4z"/>
<path fill="#332828" d="M3598 7464 c-55 -29 -58 -49 -58 -334 0 -294 4 -315 63 -343 32 -15
108 -17 839 -17 612 0 807 3 816 12 16 16 17 650 2 679 -10 19 -30 19 -823 19
-699 -1 -816 -3 -839 -16z"/>
<path fill="#332828" d="M6256 7464 c-3 -9 -6 -166 -6 -349 0 -294 2 -334 16 -339 26 -10
1600 -7 1627 3 14 6 37 22 51 38 l26 28 0 280 c0 307 0 309 -60 340 -25 13
-140 15 -838 15 -729 0 -810 -2 -816 -16z"/>
<path fill="#332828" d="M3827 6553 c-10 -10 -8 -2182 2 -2226 5 -20 20 -46 32 -57 23 -19 41
-19 714 -17 l690 2 0 1150 0 1150 -716 3 c-393 1 -719 -1 -722 -5z"/>
<path fill="#911E26" d="M5480 5405 l0 -1155 278 2 277 3 0 1150 0 1150 -277 3 -278 2 0
-1155z"/>
<path fill="#332828" d="M6255 6548 c-3 -7 -4 -526 -3 -1153 l3 -1140 683 -3 c748 -2 716 -5
741 56 8 19 10 340 9 1137 l-3 1110 -713 3 c-565 2 -714 0 -717 -10z"/>
<path fill="#85614B" d="M7777 3774 c-40 -11 -118 -50 -202 -101 -11 -7 -27 -16 -35 -20 -8
-4 -59 -33 -113 -65 -54 -32 -101 -58 -104 -58 -3 0 -25 -13 -50 -30 -24 -16
-47 -30 -50 -30 -5 0 -135 -75 -173 -100 -8 -6 -22 -13 -30 -17 -8 -4 -44 -24
-79 -46 -35 -21 -74 -43 -85 -48 -12 -5 -28 -13 -36 -19 -8 -5 -73 -44 -145
-85 -71 -41 -137 -79 -145 -85 -8 -5 -32 -18 -52 -29 -117 -63 -147 -94 -113
-114 33 -18 106 -90 150 -147 46 -60 93 -147 122 -224 10 -26 23 -50 30 -53 7
-3 38 10 70 29 32 18 64 36 73 41 8 4 29 16 45 27 17 11 37 23 45 27 8 4 59
33 113 65 55 32 100 58 102 58 3 0 198 113 225 130 8 6 24 15 35 20 11 6 34
19 50 30 17 11 39 24 51 29 11 5 51 28 88 50 36 23 68 41 70 41 2 0 61 34 131
75 69 41 129 75 132 75 3 0 25 14 50 30 24 17 47 30 50 30 4 0 116 64 173 100
8 5 44 23 79 40 l63 31 -6 41 c-15 92 -111 216 -207 267 -94 50 -219 64 -322
35z"/>
<path fill="#911E26" d="M135 3732 c-44 -4 -73 -22 -95 -58 -20 -31 -20 -56 -20 -1309 0
-1161 1 -1280 16 -1311 32 -67 -13 -64 904 -64 606 0 837 3 853 11 12 7 29 21
39 33 16 20 17 95 17 1326 0 1231 -1 1306 -17 1326 -41 49 -17 47 -867 48
-440 1 -813 0 -830 -2z"/>
<path fill="#85614B" d="M3100 3574 c-119 -19 -284 -60 -350 -86 -87 -35 -117 -38 -396 -38
-248 0 -283 -2 -288 -16 -3 -9 -6 -494 -6 -1078 0 -813 3 -1065 12 -1074 9 -9
89 -12 296 -12 157 0 301 -4 321 -9 20 -5 66 -17 104 -25 37 -9 97 -23 135
-32 37 -8 94 -22 127 -30 108 -28 169 -42 240 -59 39 -9 88 -21 110 -27 48
-13 145 -36 200 -47 38 -8 76 -17 190 -46 130 -33 152 -38 185 -45 41 -9 142
-33 310 -75 30 -8 89 -21 130 -31 41 -9 95 -23 119 -30 25 -8 53 -14 64 -14
11 0 43 -6 71 -14 28 -8 80 -22 116 -31 36 -9 88 -23 116 -31 28 -8 59 -14 69
-14 10 0 41 -7 69 -15 47 -13 184 -46 374 -90 58 -14 102 -16 210 -12 132 5
156 9 267 44 47 15 166 69 210 96 19 12 97 63 280 183 50 32 95 61 100 64 6 3
49 30 95 61 47 31 144 94 215 141 72 47 184 120 250 164 66 43 125 81 130 84
6 3 37 23 70 45 33 22 65 42 70 45 6 3 62 39 125 81 230 152 325 214 335 219
6 3 51 32 100 64 121 80 388 254 600 391 340 220 377 250 424 336 25 48 61
168 61 210 0 14 -9 58 -19 97 -46 174 -164 288 -338 326 -73 16 -85 16 -155 1
-85 -17 -107 -28 -350 -170 -9 -5 -41 -23 -70 -39 -29 -16 -65 -37 -79 -47
-15 -10 -37 -23 -50 -29 -13 -6 -37 -19 -54 -30 -16 -11 -39 -24 -50 -30 -11
-6 -29 -16 -40 -23 -11 -7 -52 -30 -90 -52 -39 -22 -79 -45 -90 -52 -11 -7
-27 -16 -35 -20 -8 -4 -69 -39 -135 -78 -66 -39 -127 -74 -135 -78 -8 -4 -24
-13 -35 -20 -11 -7 -51 -30 -90 -52 -38 -22 -79 -45 -90 -52 -11 -7 -27 -16
-35 -20 -18 -9 -259 -149 -280 -163 -8 -6 -24 -14 -35 -19 -16 -7 -25 -29 -40
-92 -21 -97 -38 -136 -82 -200 -68 -97 -184 -174 -300 -199 -79 -16 -189 -8
-383 29 -120 23 -214 40 -315 56 -55 9 -128 23 -162 31 -34 8 -72 14 -85 14
-13 0 -54 6 -93 14 -38 8 -113 22 -165 31 -93 16 -180 31 -310 56 -36 7 -87
15 -115 19 -27 4 -79 12 -115 19 -36 7 -101 19 -145 28 -44 8 -90 17 -102 19
-12 2 -34 15 -49 27 -22 19 -27 33 -28 71 -1 42 3 51 32 77 38 34 77 37 175
15 34 -8 107 -21 162 -31 55 -9 132 -23 170 -31 39 -8 80 -14 93 -14 13 0 51
-6 85 -14 58 -13 116 -24 342 -62 50 -8 124 -22 165 -29 41 -8 118 -21 170
-30 52 -9 129 -23 170 -30 41 -8 120 -21 175 -30 55 -9 119 -21 142 -26 117
-25 204 0 283 81 44 44 59 68 73 116 49 171 -11 373 -152 514 -114 113 -185
144 -421 185 -94 16 -186 32 -310 56 -36 7 -87 15 -115 19 -27 4 -79 12 -115
19 -128 24 -216 40 -310 56 -52 9 -119 21 -148 27 -29 5 -79 13 -110 18 -93
13 -135 28 -169 59 -39 36 -149 121 -157 121 -2 0 -31 18 -64 40 -190 126
-416 210 -727 271 -97 19 -444 21 -555 3z"/>
</g>
</svg>
