<svg xmlns="http://www.w3.org/2000/svg" version="1.0" preserveAspectRatio="xMidYMid meet" viewBox="35.29 44.94 158.71 79.88">
<g transform="translate(0.000000,200.000000) scale(0.050000,-0.050000)" fill="#051647" stroke="none">
<path d="M3288 3063 c-17 -20 -89 -171 -160 -335 -70 -164 -137 -301 -148 -305 -11 -3 -20 -15 -20 -25 0 -10 -90 -204 -200 -431 -225 -465 -218 -442 -150 -459 89 -22 136 33 251 295 59 136 114 252 121 257 8 6 92 181 188 390 96 209 205 435 242 502 37 67 62 127 55 135 -29 28 -148 12 -179 -24z"/>
<path d="M2384 2911 c-460 -144 -408 -860 59 -804 344 40 549 608 266 737 -27 12 -49 33 -49 47 0 52 -141 62 -276 20z m187 -177 c150 -129 38 -494 -152 -494 -96 0 -142 53 -154 178 -26 267 151 450 306 316z"/>
<path d="M1127 2891 c-223 -69 -343 -292 -221 -408 65 -60 87 -54 115 32 53 160 134 225 280 225 241 0 275 -296 63 -558 -100 -122 -382 -342 -440 -342 -163 0 -279 -165 -184 -260 55 -55 144 -51 217 10 l60 51 176 -53 c401 -121 679 -42 604 171 -25 73 -16 72 -137 11 -120 -61 -348 -49 -465 23 -8 5 42 56 110 112 391 324 518 593 396 834 -79 154 -344 224 -574 152z"/>
<path d="M3470 2361 c-428 -104 -483 -736 -71 -814 248 -47 481 180 481 468 0 120 -39 245 -77 245 -9 0 -46 27 -83 60 -69 62 -127 71 -250 41z m144 -171 c121 -85 97 -384 -38 -479 -131 -91 -256 -2 -256 182 0 251 147 400 294 297z"/>
</g>
</svg>
