<?xml version="1.0" standalone="no"?>
<!DOCTYPE svg PUBLIC "-//W3C//DTD SVG 20010904//EN"
 "http://www.w3.org/TR/2001/REC-SVG-20010904/DTD/svg10.dtd">
<svg version="1.0" xmlns="http://www.w3.org/2000/svg"
 width="300.000000pt" height="301.000000pt" viewBox="0 0 300.000000 301.000000"
 preserveAspectRatio="xMidYMid meet">
<metadata>
Created by potrace 1.10, written by Peter Selinger 2001-2011
</metadata>
<g transform="translate(0.000000,301.000000) scale(0.100000,-0.100000)"
fill="#000000" stroke="none">
<path d="M60 2575 l0 -345 345 0 345 0 0 345 0 345 -345 0 -345 0 0 -345z
m590 0 l0 -245 -245 0 -245 0 0 245 0 245 245 0 245 0 0 -245z"/>
<path d="M250 2575 l0 -145 150 0 150 0 0 145 0 145 -150 0 -150 0 0 -145z"/>
<path d="M1240 2870 l0 -50 50 0 50 0 0 50 0 50 -50 0 -50 0 0 -50z"/>
<path d="M1540 2870 l0 -50 101 0 100 0 -3 -47 -3 -48 -47 -3 -48 -3 0 -95 0
-94 -150 0 -150 0 0 95 0 95 -245 0 -245 0 0 -295 0 -295 50 0 50 0 0 -50 0
-50 45 0 45 0 0 50 0 50 -45 0 -45 0 0 100 0 100 44 0 45 0 3 -47 3 -48 47 -3
47 -3 3 -97 3 -97 48 -3 47 -3 0 -44 0 -44 -47 -3 -48 -3 -3 -47 -3 -48 50 0
51 0 0 50 0 50 50 0 50 0 0 45 0 45 -50 0 -50 0 0 50 0 50 100 0 100 0 0 -50
0 -50 50 0 50 0 0 -45 0 -45 100 0 100 0 0 44 0 45 48 3 47 3 3 48 3 47 95 0
94 0 0 -50 0 -50 -50 0 -50 0 0 -45 0 -45 100 0 100 0 0 195 0 195 -50 0 -50
0 0 -51 0 -50 -47 3 -48 3 -3 198 -2 197 50 0 50 0 0 -100 0 -100 50 0 50 0 0
100 0 100 -50 0 -50 0 0 95 0 95 50 0 50 0 0 50 0 50 -100 0 -100 0 0 -145 0
-145 -45 0 -45 0 0 -100 0 -100 -100 0 -100 0 0 50 0 50 50 0 50 0 0 94 0 95
48 3 47 3 3 48 3 47 -50 0 -51 0 0 50 0 50 -100 0 -100 0 0 -50z m-200 -390
l0 -50 -50 0 -50 0 0 -100 0 -100 -50 0 -50 0 0 50 0 50 -51 0 -50 0 3 48 3
47 98 3 97 3 0 49 0 50 50 0 50 0 0 -50z m100 -200 l0 -50 50 0 50 0 0 50 0
50 50 0 50 0 0 -50 0 -50 50 0 50 0 0 50 0 50 51 0 50 0 -3 -47 -3 -48 -47 -3
-48 -3 0 -100 0 -99 -50 0 -50 0 0 100 0 100 -50 0 -50 0 0 -50 0 -50 -50 0
-50 0 0 50 0 50 -50 0 -50 0 0 50 0 50 50 0 50 0 0 -50z"/>
<path d="M2230 2575 l0 -345 345 0 345 0 0 345 0 345 -345 0 -345 0 0 -345z
m590 0 l0 -245 -245 0 -245 0 0 245 0 245 245 0 245 0 0 -245z"/>
<path d="M2430 2575 l0 -145 144 0 145 0 3 108 c2 59 2 124 0 145 l-3 37 -145
0 -144 0 0 -145z"/>
<path d="M1483 2722 l-43 -3 0 -45 0 -44 50 0 50 0 0 44 c0 25 -3 46 -7 48 -5
2 -27 2 -50 0z"/>
<path d="M2170 2149 c0 -5 5 -7 10 -4 6 3 10 8 10 11 0 2 -4 4 -10 4 -5 0 -10
-5 -10 -11z"/>
<path d="M60 2080 l0 -50 50 0 50 0 0 -45 0 -45 -50 0 -50 0 0 -150 0 -150 51
0 50 0 -3 -47 -3 -48 -47 -3 -48 -3 0 -100 0 -99 95 0 95 0 0 -95 0 -95 50 0
50 0 0 -50 0 -50 100 0 100 0 0 -50 0 -50 -50 0 -50 0 0 -50 0 -50 150 0 150
0 0 50 0 50 -50 0 -50 0 0 50 0 50 151 0 150 0 -3 48 -3 47 -147 3 -148 3 0
44 0 44 98 3 97 3 3 48 3 47 -100 0 -101 0 0 -50 0 -50 -50 0 -50 0 0 -45 0
-45 -50 0 -50 0 0 44 0 45 -47 3 -48 3 -3 48 -3 47 50 0 51 0 0 50 0 50 -50 0
-50 0 0 50 0 50 150 0 150 0 0 -50 0 -50 100 0 100 0 0 50 0 50 94 0 95 0 3
-47 3 -48 48 -3 47 -3 0 50 0 51 -51 0 -50 0 3 48 3 47 98 3 97 3 0 -101 0
-100 50 0 50 0 0 -50 0 -50 -50 0 -50 0 0 -50 0 -50 -50 0 -50 0 0 -45 0 -45
50 0 50 0 0 -50 0 -49 -97 -3 -98 -3 -3 -147 -3 -148 -44 0 -44 0 -3 98 -3 97
-47 3 -48 3 0 -100 0 -101 50 0 50 0 0 -50 0 -50 -50 0 -50 0 0 -195 0 -195
50 0 50 0 0 -50 0 -50 -50 0 -50 0 0 -50 0 -50 50 0 50 0 0 50 0 50 44 0 45 0
3 -47 3 -48 98 -3 97 -3 0 51 0 50 50 0 50 0 0 -50 0 -50 150 0 150 0 0 50 0
50 50 0 50 0 0 50 0 50 95 0 95 0 0 50 0 50 -145 0 -145 0 0 50 0 50 195 0
195 0 0 -50 0 -50 49 0 50 0 3 47 3 48 95 0 95 0 3 -97 3 -98 49 0 50 0 0 100
0 100 50 0 50 0 0 95 0 95 50 0 50 0 0 -95 0 -95 145 0 145 0 0 95 0 94 -97 3
-98 3 0 45 0 45 48 3 47 3 0 100 0 99 -145 0 -145 0 0 50 0 50 94 0 c58 0 96
4 98 11 2 5 2 28 0 50 -4 39 -4 39 -48 39 l-44 0 0 45 0 45 -100 0 -100 0 0
49 0 50 48 3 47 3 3 48 3 47 94 0 94 0 3 -47 3 -48 98 -3 97 -3 0 101 0 100
-50 0 -50 0 0 51 0 50 -47 -3 -48 -3 -3 -47 -3 -48 -45 0 -44 0 0 50 0 50
-100 0 -100 0 0 50 0 50 100 0 100 0 0 50 0 50 44 0 45 0 3 48 3 47 48 3 47 3
0 44 0 44 -47 3 -48 3 -3 48 -3 47 -245 0 -244 0 0 -50 0 -50 100 0 100 0 0
-44 0 -45 48 -3 47 -3 3 -47 3 -48 -298 -2 -298 -3 -3 -47 -3 -48 -44 0 -44 0
-3 48 -3 47 -97 3 -98 3 0 -101 0 -100 -150 0 -150 0 0 50 0 50 -195 0 -195 0
0 50 0 50 45 0 45 0 0 50 0 50 -45 0 -45 0 0 -50 0 -50 -99 0 -100 0 -3 48 -3
47 -47 3 -48 3 0 45 0 44 50 0 50 0 0 50 0 50 -250 0 -250 0 0 -50 0 -50 -45
0 -45 0 0 50 0 50 -50 0 -50 0 0 -50z m290 -95 l0 -45 50 0 50 0 0 45 0 45 50
0 50 0 0 -45 0 -45 -50 0 -50 0 0 -100 0 -100 50 0 50 0 0 50 0 50 100 0 100
0 0 -50 0 -50 100 0 100 0 0 -50 0 -50 -100 0 -100 0 0 -50 0 -50 -50 0 -50 0
0 50 0 50 -150 0 -150 0 0 -50 0 -50 -50 0 -50 0 0 50 0 50 -45 0 -45 0 0 100
0 100 45 0 45 0 0 95 0 95 50 0 50 0 0 -45z m2370 0 l0 -45 -45 0 -45 0 0 45
0 45 45 0 45 0 0 -45z m-690 -295 l0 -50 50 0 50 0 0 50 0 50 50 0 50 0 0 -50
0 -50 -50 0 -50 0 0 -50 0 -50 100 0 100 0 0 50 0 50 50 0 50 0 0 -50 0 -50
50 0 50 0 0 -50 0 -50 -345 0 -345 0 0 -50 0 -50 195 0 195 0 0 -50 0 -50 -50
0 -50 0 0 -45 0 -45 100 0 100 0 0 45 0 45 50 0 50 0 0 -44 0 -45 48 -3 47 -3
3 -47 3 -48 -50 0 -51 0 0 50 0 50 -50 0 -50 0 0 -50 0 -50 -100 0 -100 0 0
51 0 50 -47 -3 -48 -3 -3 -47 -3 -48 -95 0 -94 0 0 -50 0 -50 -50 0 -50 0 0
-50 0 -50 94 0 95 0 3 48 3 47 48 3 47 3 0 -100 0 -101 -50 0 -50 0 0 -50 0
-50 -94 0 -95 0 -3 -47 -3 -48 -47 -3 -48 -3 0 150 0 151 -150 0 -150 0 0 50
0 50 -50 0 -50 0 0 -50 0 -50 -51 0 -50 0 3 48 3 47 48 3 47 3 0 50 0 49 50 0
50 0 0 50 0 50 -50 0 -50 0 0 45 0 45 50 0 50 0 0 50 0 50 50 0 50 0 0 50 0
50 50 0 50 0 0 -50 0 -50 -50 0 -50 0 0 -50 0 -50 50 0 50 0 0 -45 0 -45 100
0 100 0 0 45 0 45 -50 0 -50 0 0 100 0 100 100 0 100 0 0 50 0 50 -100 0 -100
0 0 50 0 51 98 -3 97 -3 3 -47 3 -48 45 0 44 0 0 100 0 100 50 0 50 0 0 -50z
m-1380 -590 l0 -50 -50 0 -50 0 0 50 0 50 50 0 50 0 0 -50z m1780 -400 l0
-150 -150 0 -150 0 0 150 0 150 150 0 150 0 0 -150z m290 100 l0 -50 -95 0
-95 0 0 50 0 50 95 0 95 0 0 -50z m-1480 -100 l0 -50 50 0 50 0 0 -50 0 -50
50 0 50 0 0 50 0 50 50 0 50 0 0 -50 0 -50 -50 0 -50 0 0 -44 0 -45 48 -3 47
-3 3 -47 3 -48 50 0 49 0 0 -50 0 -50 -50 0 -50 0 0 -50 0 -50 -100 0 -100 0
0 50 0 50 100 0 100 0 0 50 0 50 -50 0 -50 0 0 51 0 50 -47 -3 -48 -3 -3 -47
-3 -48 -100 0 -99 0 0 95 0 95 -50 0 -50 0 0 -45 0 -45 -45 0 -45 0 0 95 0 95
45 0 45 0 0 50 0 50 100 0 100 0 0 -50z m-200 -390 l0 -50 -45 0 -45 0 0 50 0
50 45 0 45 0 0 -50z"/>
<path d="M650 1690 l0 -50 50 0 50 0 0 50 0 50 -50 0 -50 0 0 -50z"/>
<path d="M1740 1289 l0 -50 48 3 47 3 3 48 3 47 -50 0 -51 0 0 -51z"/>
<path d="M1440 1000 l0 -50 50 0 50 0 0 50 0 50 -50 0 -50 0 0 -50z"/>
<path d="M1640 1001 l0 -51 51 0 50 0 -3 48 -3 47 -47 3 -48 3 0 -50z"/>
<path d="M2230 700 l0 -50 50 0 50 0 0 50 0 50 -50 0 -50 0 0 -50z"/>
<path d="M1440 1790 l0 -50 50 0 50 0 0 50 0 50 -50 0 -50 0 0 -50z"/>
<path d="M2827 1833 c-4 -3 -7 -26 -7 -50 l0 -43 50 0 50 0 0 50 0 50 -43 0
c-24 0 -47 -3 -50 -7z"/>
<path d="M60 1045 l0 -195 50 0 50 0 0 195 0 195 -50 0 -50 0 0 -195z"/>
<path d="M2827 1143 c-4 -3 -7 -26 -7 -50 l0 -43 50 0 50 0 0 50 0 50 -43 0
c-24 0 -47 -3 -50 -7z"/>
<path d="M257 943 c-4 -3 -7 -26 -7 -50 l0 -43 50 0 50 0 0 50 0 50 -43 0
c-24 0 -47 -3 -50 -7z"/>
<path d="M60 405 l0 -345 345 0 345 0 0 345 0 345 -345 0 -345 0 0 -345z m590
0 l0 -245 -245 0 -245 0 0 245 0 245 245 0 245 0 0 -245z"/>
<path d="M250 405 l0 -145 150 0 150 0 0 145 0 145 -150 0 -150 0 0 -145z"/>
<path d="M2630 310 l0 -50 -50 0 -50 0 0 -50 0 -50 -50 0 -50 0 0 -50 0 -50
145 0 144 0 3 98 3 97 48 3 47 3 0 -50 0 -51 50 0 50 0 0 50 0 50 -50 0 -50 0
0 50 0 50 -95 0 -95 0 0 -50z"/>
<path d="M1937 153 c-4 -3 -7 -26 -7 -50 l0 -43 50 0 50 0 0 50 0 50 -43 0
c-24 0 -47 -3 -50 -7z"/>
<path d="M2130 110 l0 -50 100 0 100 0 0 50 0 50 -100 0 -100 0 0 -50z"/>
</g>
</svg>
