<?xml version="1.0" standalone="no"?>
<!DOCTYPE svg PUBLIC "-//W3C//DTD SVG 20010904//EN"
 "http://www.w3.org/TR/2001/REC-SVG-20010904/DTD/svg10.dtd">
<svg version="1.0" xmlns="http://www.w3.org/2000/svg"
 width="300.000000pt" height="300.000000pt" viewBox="0 0 300.000000 300.000000"
 preserveAspectRatio="xMidYMid meet">
<metadata>
Created by potrace 1.10, written by Peter Selinger 2001-2011
</metadata>
<g transform="translate(0.000000,300.000000) scale(0.100000,-0.100000)"
fill="#051647" stroke="none">
<path d="M1610 2786 l-66 -201 -212 -5 -212 -5 170 -123 c93 -68 170 -124 170
-125 0 -1 -29 -92 -64 -202 -36 -110 -64 -201 -62 -202 2 -2 80 53 174 121
l171 124 172 -124 c95 -68 174 -123 175 -121 2 1 -26 92 -61 201 -36 109 -63
201 -61 205 2 3 79 60 170 126 l166 120 -212 5 -212 5 -66 197 c-36 108 -67
199 -70 201 -3 3 -34 -86 -70 -197z"/>
<path d="M993 1748 l-132 -403 -408 -2 c-224 -2 -415 -4 -424 -5 -9 -2 138
-115 327 -252 189 -137 342 -252 340 -255 -11 -19 -258 -793 -254 -796 3 -3
157 106 343 240 186 135 343 244 350 242 6 -3 161 -114 344 -247 183 -133 335
-240 337 -238 3 3 -120 388 -251 789 -4 13 77 77 335 264 187 136 339 250 336
252 -2 2 -191 4 -420 4 -228 0 -417 3 -420 8 -3 4 -62 183 -132 397 -69 214
-129 392 -133 397 -4 4 -66 -174 -138 -395z m200 -428 l58 -180 189 -2 188 -3
-145 -104 c-80 -58 -147 -110 -150 -117 -2 -7 20 -90 51 -185 30 -95 54 -174
53 -176 -2 -1 -72 47 -155 108 l-153 111 -37 -26 c-20 -14 -89 -63 -152 -110
-63 -46 -117 -83 -118 -81 -2 2 21 82 52 178 31 96 56 177 56 180 0 3 -68 54
-151 114 l-151 108 189 5 188 5 60 178 c33 97 62 177 65 177 3 0 31 -81 63
-180z"/>
<path d="M2677 2080 c-4 -8 -20 -59 -37 -112 l-31 -97 -121 -3 -122 -3 90 -64
c49 -35 92 -67 97 -71 4 -3 -8 -55 -27 -115 -19 -60 -34 -110 -32 -112 1 -1
42 27 91 62 49 36 94 65 99 64 6 0 49 -29 96 -64 47 -35 86 -58 88 -52 1 7
-11 52 -28 101 -16 50 -30 95 -30 102 0 7 42 43 93 81 l92 68 -120 3 -120 3
-36 112 c-21 65 -39 106 -42 97z"/>
</g>
</svg>
