<?xml version="1.0" standalone="no"?>
<!DOCTYPE svg PUBLIC "-//W3C//DTD SVG 20010904//EN"
 "http://www.w3.org/TR/2001/REC-SVG-20010904/DTD/svg10.dtd">
<svg version="1.0" xmlns="http://www.w3.org/2000/svg"
 width="900.000000pt" height="900.000000pt" viewBox="0 0 900.000000 900.000000"
 preserveAspectRatio="xMidYMid meet">
<metadata>
Created by potrace 1.10, written by Peter Selinger 2001-2011
</metadata>
<g transform="translate(0.000000,900.000000) scale(0.100000,-0.100000)"
fill="#f1ebe3" stroke="none">
<path d="M2125 8695 c-169 -35 -311 -146 -391 -305 -45 -90 -64 -207 -63 -383
1 -71 -1 -131 -4 -133 -3 -3 -148 -5 -324 -5 -444 2 -556 -12 -698 -87 -149
-78 -276 -223 -331 -376 -45 -127 -44 -26 -44 -3056 0 -3030 -1 -2929 44
-3056 66 -185 221 -339 421 -417 124 -49 43 -47 2192 -47 1935 0 2010 1 2043
19 77 40 103 133 57 202 -46 69 131 63 -2127 69 l-2045 5 -45 24 c-116 61
-194 144 -233 251 -16 42 -17 207 -15 2270 l3 2225 3925 0 3925 0 5 -1210 c5
-1315 2 -1237 58 -1288 39 -35 139 -34 181 2 54 47 51 -63 51 1948 0 1963 0
1934 -44 2059 -58 161 -203 320 -356 390 -139 63 -248 75 -665 74 -170 0 -316
-1 -322 0 -10 0 -13 33 -13 133 -1 246 -32 365 -131 494 -117 152 -329 234
-521 203 -190 -30 -339 -140 -424 -310 -45 -90 -64 -207 -63 -383 1 -71 -1
-130 -4 -133 -5 -5 -1098 -6 -1103 -1 -2 2 -5 79 -7 173 -4 181 -18 257 -64
349 -108 218 -349 344 -586 305 -189 -30 -338 -140 -423 -310 -45 -90 -64
-207 -63 -383 1 -71 -1 -130 -4 -133 -6 -6 -1098 -6 -1104 0 -3 3 -5 62 -4
133 1 176 -18 293 -63 383 -82 164 -224 272 -401 306 -83 16 -138 16 -220 -1z
m236 -297 c53 -27 103 -77 131 -131 l23 -42 0 -505 0 -505 -41 -60 c-73 -108
-174 -150 -294 -125 -33 7 -65 19 -71 26 -6 8 -17 14 -25 14 -13 0 -62 57
-100 115 -18 29 -19 52 -19 540 l0 510 38 57 c36 54 56 72 122 110 47 26 182
24 236 -4z m2250 0 c53 -27 103 -77 131 -131 l23 -42 0 -505 0 -505 -41 -60
c-73 -108 -174 -150 -294 -125 -33 7 -65 19 -71 26 -6 8 -17 14 -25 14 -13 0
-62 57 -100 115 -18 29 -19 52 -19 540 l0 510 38 57 c36 54 56 72 122 110 47
26 182 24 236 -4z m2250 0 c53 -27 103 -77 131 -131 l23 -42 0 -505 0 -505
-41 -60 c-73 -108 -174 -150 -294 -125 -33 7 -65 19 -71 26 -6 8 -17 14 -25
14 -13 0 -62 57 -100 115 -18 29 -19 52 -19 540 l0 510 38 57 c36 54 56 72
122 110 47 26 182 24 236 -4z m-5191 -830 c-1 -131 12 -355 23 -399 78 -304
398 -493 690 -410 73 21 171 72 224 117 76 63 153 189 180 293 11 44 24 268
23 399 0 9 118 12 555 12 437 0 555 -3 555 -12 -1 -131 12 -355 23 -399 104
-401 585 -561 906 -300 82 67 160 191 188 300 11 44 24 268 23 399 0 9 118 12
555 12 437 0 555 -3 555 -12 -1 -131 12 -355 23 -399 92 -356 486 -532 810
-362 139 73 244 207 284 362 11 44 24 268 23 399 0 9 85 12 391 12 l390 0 75
-31 c81 -34 175 -116 205 -180 52 -110 50 -74 47 -654 l-3 -540 -3925 0 -3925
0 0 555 0 555 30 60 c44 87 128 166 217 204 l73 30 393 1 c307 0 392 -3 392
-12z"/>
<path d="M1594 5181 c-39 -10 -118 -66 -141 -100 -52 -77 -53 -86 -53 -381 0
-316 3 -330 82 -406 85 -82 67 -79 478 -79 l365 0 45 27 c53 31 87 66 121 123
24 40 24 41 24 335 0 289 0 296 -23 337 -30 54 -59 84 -113 119 l-44 29 -355
2 c-195 1 -369 -2 -386 -6z m641 -481 l0 -205 -280 0 -280 0 -3 195 c-1 107 0
200 3 207 3 11 62 13 282 11 l278 -3 0 -205z"/>
<path d="M3284 5181 c-40 -10 -117 -64 -143 -99 -11 -16 -29 -52 -40 -81 -19
-47 -21 -73 -21 -300 0 -232 2 -253 22 -306 24 -64 78 -124 141 -157 41 -23
47 -23 409 -23 l367 0 58 41 c69 49 106 100 122 167 15 66 15 493 -1 555 -19
78 -72 147 -143 185 -39 21 -52 22 -390 24 -192 1 -364 -2 -381 -6z m636 -283
c1 -12 1 -382 0 -400 0 -12 -538 -10 -545 2 -8 13 -8 387 0 400 10 16 545 14
545 -2z"/>
<path d="M4970 5181 c-85 -27 -160 -102 -185 -186 -19 -66 -22 -494 -4 -572
16 -68 54 -119 124 -167 l60 -41 365 0 c359 0 366 0 407 23 63 33 117 93 141
157 20 53 22 74 22 306 0 228 -2 253 -21 301 -28 72 -58 109 -121 149 l-52 34
-356 2 c-195 1 -366 -2 -380 -6z m635 -281 c4 -6 6 -96 6 -200 0 -104 -2 -194
-6 -200 -10 -16 -545 -14 -545 3 -1 11 -1 381 0 400 0 11 538 9 545 -3z"/>
<path d="M6661 5183 c-59 -12 -137 -78 -175 -148 -20 -38 -21 -52 -21 -335 0
-294 0 -295 24 -335 34 -57 68 -92 121 -123 l45 -27 365 0 c411 0 393 -3 478
79 79 76 82 90 82 406 0 244 -2 282 -18 316 -29 65 -51 91 -109 131 l-55 38
-357 1 c-196 1 -367 0 -380 -3z m644 -483 l0 -205 -280 0 -280 0 -3 208 -2
207 282 -2 283 -3 0 -205z"/>
<path d="M5280 3920 c-354 -5 -348 -4 -416 -67 -83 -77 -93 -121 -93 -418 -1
-263 5 -304 56 -375 60 -82 181 -133 261 -109 23 6 54 25 69 41 25 26 28 37
28 93 0 72 -14 94 -80 127 -22 12 -42 24 -45 28 -3 5 -3 97 0 206 l5 199 303
3 302 2 40 40 c37 37 40 45 40 93 0 77 -40 127 -110 137 -19 3 -181 3 -360 0z"/>
<path d="M1544 3890 c-58 -33 -99 -77 -125 -135 -17 -36 -19 -71 -19 -318 0
-239 2 -284 17 -315 41 -91 111 -150 201 -170 79 -18 621 -16 688 2 81 21 129
58 182 140 l27 41 0 300 0 300 -37 55 c-38 56 -68 84 -125 113 -28 15 -77 17
-395 17 l-363 0 -51 -30z m694 -453 l2 -207 -282 2 -283 3 -3 188 c-1 119 1
195 8 207 11 20 20 20 283 18 l272 -3 3 -208z"/>
<path d="M3245 3901 c-73 -39 -123 -99 -148 -175 -25 -72 -25 -509 -1 -582 33
-97 115 -172 212 -193 80 -17 622 -15 689 3 95 25 169 98 198 193 21 69 21
507 0 577 -24 78 -72 136 -148 176 -36 19 -55 20 -405 19 -319 -1 -371 -4
-397 -18z m675 -454 c3 -108 4 -202 2 -207 -6 -16 -552 -13 -553 3 -2 59 3
393 7 399 3 5 125 7 272 6 l267 -3 5 -198z"/>
<path d="M6585 3904 c-38 -8 -90 -19 -115 -26 -25 -6 -61 -14 -80 -18 -75 -17
-185 -60 -320 -125 -89 -43 -89 -43 -210 -122 -117 -76 -159 -111 -281 -233
-185 -187 -317 -394 -412 -645 -79 -208 -107 -375 -107 -637 0 -266 23 -399
115 -656 15 -43 94 -209 118 -247 187 -305 377 -498 662 -672 25 -15 210 -106
248 -122 33 -13 130 -45 202 -66 120 -34 342 -65 470 -65 142 0 388 34 480 66
23 8 48 14 57 14 10 0 32 6 50 14 18 8 53 22 78 31 307 119 591 332 789 595
101 134 109 146 161 245 65 124 104 220 154 385 32 103 66 355 66 481 -1 94
-24 302 -44 394 -15 69 -62 221 -86 280 -15 34 -106 219 -124 250 -133 228
-335 443 -559 591 -101 68 -284 166 -342 183 -16 5 -61 21 -100 34 -80 28
-164 49 -283 72 -109 20 -485 19 -587 -1z m515 -274 c248 -43 433 -113 625
-236 221 -141 428 -376 544 -619 19 -38 37 -78 42 -87 21 -42 65 -194 93 -324
22 -98 22 -411 1 -526 -19 -102 -69 -276 -94 -326 -4 -9 -23 -48 -42 -87 -145
-304 -398 -559 -699 -706 -47 -23 -93 -46 -102 -50 -50 -25 -224 -75 -326 -94
-115 -21 -428 -21 -526 1 -133 29 -285 73 -324 93 -9 5 -48 24 -87 42 -200 94
-397 253 -544 439 -205 260 -326 610 -326 945 0 157 26 331 66 450 6 17 14 44
19 60 10 39 42 112 91 208 138 272 385 519 656 656 102 52 192 91 209 91 7 0
28 6 46 14 45 19 110 35 193 47 39 6 93 14 120 19 62 11 278 5 365 -10z"/>
<path d="M7745 2720 c-20 -6 -211 -191 -580 -560 -302 -302 -557 -550 -565
-550 -8 0 -129 114 -270 254 -279 278 -285 283 -371 257 -88 -26 -119 -138
-60 -217 16 -21 163 -172 327 -336 333 -330 343 -337 420 -303 49 22 1236
1203 1265 1257 46 90 -3 187 -101 202 -19 3 -48 1 -65 -4z"/>
<path d="M1571 2641 c-57 -23 -125 -90 -151 -148 -18 -42 -20 -66 -20 -323 0
-253 2 -281 19 -321 34 -75 99 -133 181 -159 35 -12 112 -15 360 -15 358 0
382 4 465 77 90 79 90 81 90 418 0 290 0 296 -23 337 -29 52 -91 109 -146 134
-38 17 -69 19 -386 18 -307 0 -350 -2 -389 -18z m664 -471 l0 -205 -269 -3
c-190 -2 -273 1 -282 9 -11 9 -14 50 -14 188 0 97 3 186 6 199 l6 22 277 -2
276 -3 0 -205z"/>
<path d="M3251 2638 c-63 -29 -123 -93 -149 -161 -21 -55 -22 -74 -22 -308 0
-228 2 -253 21 -301 40 -103 101 -156 210 -184 90 -23 643 -16 710 9 89 34
155 108 177 199 16 64 16 507 0 562 -24 84 -83 149 -171 189 -33 15 -76 17
-385 16 -325 -1 -350 -2 -391 -21z m671 -454 c2 -107 -1 -202 -5 -210 -7 -12
-54 -14 -272 -14 -172 0 -266 4 -270 10 -8 13 -8 387 0 400 4 6 115 10 275 10
l269 0 3 -196z"/>
</g>
</svg>
