<svg xmlns="http://www.w3.org/2000/svg" xmlns:xlink="http://www.w3.org/1999/xlink" version="1.1" id="Layer_1" x="0px" y="0px" style="enable-background:new 0 0 3800 2000;" xml:space="preserve" viewBox="503.48 618.48 1789.12 1017.66">
<rect x="0.001" style="fill:none;" width="3800" height="2000"/>
<g>
	<g>
		<path style="fill:#F48C7F;" d="M1658.468,1549.848c0,0-10.464,10.479-10.701,14.325c-0.237,3.847-0.927,45.047,3.345,48.893    c4.271,3.847,16.819,6.573,12.785,10.9c-3.049,3.27-26.504,2.57-42.05,1.692c-4.537-0.256-10.229-37.418-12.025-42.879    c-2.61-7.933-12.014-25.197-9.641-30.726c1.156-2.693,9.744-8.834,17.539-14.001c8.199-5.435,16.043-17.536,16.043-17.536    L1658.468,1549.848z"/>
		<path style="fill:#F7A491;" d="M1798.445,1575.59c0,0-9.364,27.15-9.375,27.22c-0.696,4.302-3.438,14.93-3.438,18.84    c0,14.691,64.548-12.471,50.081-18.98c-1.309-0.589-5.417-5.297-5.848-10.296c-0.663-7.704,5.438-17.366,5.438-17.366    L1798.445,1575.59z"/>
		<g>
			<path style="fill:#184655;" d="M1906.214,1062.206c0,0,4.861,44.925,4.861,45.65c0,78.735,9.077,232.533,6.186,247.335     c-7.056,36.106-84.1,232.621-84.1,232.621l-39.925-5.777l53.477-232.109l-19.679-88.761l-27.847-175.453L1906.214,1062.206z"/>
			<path style="fill:#355389;" d="M1755.746,1101.509l-7.787,46.133l-21.068,189.859L1623.77,1530.17     c0,0,15.506,24.106,32.156,27.899l146.366-194.729l79.324-243.777l-2.785-54.16L1755.746,1101.509z"/>
		</g>
		<path style="fill:#466EB6;" d="M1909.844,942.568l-56.906,5.962c0,0-2.61-47.883-2.61-70.723c0-27.711,3.052-62.993,6.312-62.225    c9.151,2.156,20.722,6.93,28.059,17.277C1910.086,868.664,1909.844,942.568,1909.844,942.568z"/>
		<path style="fill:#F8A492;" d="M1699.401,1172.557c-8.682-14.414-10.63-12.367-11.696-14.245c-1.26-2.222,0.139-36.53,0.139-36.53    s3.481-101.148,3.852-106.602l44.456-93.383l-38.43-36.658c0,0-45.755,102.961-47.24,108.79    c-1.485,5.83,9.097,143.296,9.653,155.426c0,0-4.455,14.667-6.961,23.976c-2.506,9.31-0.896,19.346-1.214,22.083    c-0.047,0.404-0.595,9.594,1.625,21.126c1.913,9.938,4.456-0.353,4.456-0.353s-0.378-19.043,1.067-18.799    c1.114,0.188,0.731,10.593,2.738,21.611c0.516,2.834,1.035,5.628,1.531,8.191c1.303,6.728,5.628,7.86,5.338,0.604    c-0.103-2.562-0.372-6.814-0.975-9.821c-0.651-3.25-0.246-6.443-0.394-9.257c-0.294-5.588-0.577-9.658-0.349-9.543    c0.295,0.15,0.987-0.992,1.625,1.998c0.766,3.595,0.775,11.591,2.293,16.791c0.861,2.949,2.301,9.222,2.301,9.222    s3.873,9.075,4.456,9.023c3.156-0.282,2.181-7.238,0.511-11.091c0.139-3.008-1.555-9.564-1.555-9.564s-0.58-14.028,1.323-14.122    c0.811-0.041,2.153,8.529,4.734,16.731c2.396,7.614,6.006,14.912,7.518,14.663c2.565-0.423,0.766-9.164,0.766-9.164    s-1.574-6.057-1.949-8.107c-0.44-2.405-1.23-9.705-1.23-9.705s-1.617-25.535,0.193-25.463c1.81,0.07,6.405,2.185,7.031,3.736    c0.626,1.551,0.348,5.007,0.975,6.559c0.626,1.551,2.715,3.033,4.595,2.397c1.88-0.635,1.602-9.31,1.602-9.31    S1701.908,1176.716,1699.401,1172.557z"/>
		<path style="fill:#86B1F2;" d="M1881.887,872.92c1.192,8.448,29.25,234.966,29.25,234.966    c-103.615,51.362-171.188,35.958-171.188,35.958s7.607-184.927,3.544-206.881c-2.688-14.525-6.04-111.04,3.13-113.744    c11.767-3.469,25.26-7.153,39.968-8.719c12.554-1.338,61.322-2.113,70.047,0.895    C1856.639,815.395,1876.875,837.39,1881.887,872.92z"/>
		<path style="fill:#466EB6;" d="M1672.661,920.669l49.297,33.971c0,0,27.785-42.437,42.699-57.544    c18.684-18.926-6.806-76.902-18.843-73.622C1718.888,830.81,1672.661,920.669,1672.661,920.669z"/>
		<path style="fill:#3C8F7C;" d="M1618.226,1537.791c0,0,24.117,69.693,33.556,73.059c2.506,0.893,14.535,3.159,16.804,8.619    c0.683,1.644,0,7.138,0,7.138h-50.268c0,0-6.358-30.708-8.871-44.2c0,0-13.306-32.965-11.827-35.961    C1599.099,1543.449,1618.226,1537.791,1618.226,1537.791z"/>
		<path style="fill:#3C8F7C;" d="M1781.96,1626.496l7.392-23.967c0,0,15.524,6.741,23.286,5.618    c7.762-1.124,22.916-5.618,22.916-5.618c30.981,10.467,56.363,15.547,51.746,23.967l0,0H1781.96z"/>
		<path style="fill:#FE875E;" d="M1983.61,1132.507c5.286,4.645,11.103,6.548,17.866,5.134    C1995.146,1142.453,1986.326,1138.767,1983.61,1132.507z"/>
		<path style="fill:#F7A491;" d="M1800.365,767.337l-7.623,47.837c0,0,27.905,60.868,44.579,55.744    c13.991-4.299,5.384-56.577,5.384-56.577s-7.626-28.075-5.339-42.124C1839.653,758.168,1800.365,767.337,1800.365,767.337z"/>
		<path style="fill:#F47458;" d="M1837.366,772.217c2.287-14.049-37.001-4.88-37.001-4.88l-0.634,4.116    c1.15,2.753,2.555,5.109,4.26,6.916c8.776,9.296,22.493,14.88,34.353,15.302C1837.157,786.097,1836.428,777.978,1837.366,772.217z    "/>
		<g>
			<path style="fill:#F7A491;" d="M1793.918,697.137c-1.11-0.397-8.901,56.516,5.883,72.175     c14.783,15.659,43.586,20.784,53.918,8.451c11.428-13.642,10.854-74.81-12.131-90.918     C1818.604,670.736,1793.918,697.137,1793.918,697.137z"/>
			<path style="fill:#F7CC7F;" d="M1799.337,675.208c-8.066,0.938-19.03,5.326-30.353,23.779     c-13.921,22.689-3.641,47.827,12.566,60.16c16.206,12.333,15.916,26.458,15.916,26.458l2.626-7.248     c1.891-5.583,2.663-11.502,2.03-17.357c-0.379-3.513-1.144-7.312-2.621-10.435c-3.897-8.237,8.373-13.709,11.813-20.562     c2.65-5.277,2.778-17.348,6.952-26.07l4.985-6.658c0,0,11.5-8.809,22.75-6.323     C1857.251,693.438,1843.431,639.406,1799.337,675.208z"/>
			<path style="fill:#F7A491;" d="M1810.558,740.133c0.117,6.943-3.089,12.628-7.162,12.696c-4.073,0.068-7.47-5.505-7.587-12.449     c-0.118-6.944,3.089-12.628,7.162-12.696C1807.044,727.615,1810.44,733.189,1810.558,740.133z"/>
		</g>
	</g>
	<g>
		<path style="fill:#13375B;" d="M811.176,1202.968h-85.411c-7.052,0-12.769,5.716-12.769,12.769v47.942h14.282v-45.451h83.897    V1202.968z"/>
		<path style="fill:#F7A491;" d="M827.501,1170.592l-26.474-27.932c0,0-28.338,15.585-61.372,30.476    c-9.082-15.807-23.903-67.801-24.701-70.28c-0.799-2.488,17.36-33.721,13.298-34.504c-4.063-0.783-9.337,16.68-13.631,14.909    c-4.293-1.77-15.334-42.282-17.918-40.071c-4.835,4.137,5.808,25.198,3.259,26.732c-2.549,1.534-9.014-23.346-13.937-22.284    c-4.922,1.061,8.312,22.649,6.86,24.725c-1.453,2.075-15.284-18.179-18.142-13.487c-1.551,2.547,12.759,17.637,9.816,19.324    c-2.944,1.688-15.841-7.815-17.38-4.736c-1.539,3.079,12.034,6.286,15.802,14.077c3.768,7.792,10.621,10.823,12.894,25.554    c2.271,14.717,8.49,93.459,24.541,99.782C734.432,1218.396,827.501,1170.592,827.501,1170.592z"/>
		<g>
			<path style="fill:#F7A491;" d="M1071.701,1533.604c2.091-14.851,1.926-42.271,0.864-71.201     c12.956-0.657,23.918-1.478,36.863-2.332c-5.392,36.944-9.017,74.99-9.017,74.99l0.886,7.304l0.477,21.641l-73.32,0.546     c0,0,15.453-6.85,37.069-20.389C1067.122,1543.161,1070.805,1539.969,1071.701,1533.604z"/>
			<path style="fill:#F47458;" d="M1103.75,1568.654l-77.313,0.913c-2.799-0.251-3.481-2.515-2.511-3.91     c1.999-2.872,10.829-4.98,20.753-9.558c17.409,1.816,53.829-10.079,56.577-14.076     C1102.842,1550.027,1105.306,1568.313,1103.75,1568.654z"/>
		</g>
		<g>
			<path style="fill:#F7A491;" d="M1203.068,1518.303c-6.051-13.725-20.645-36.939-36.795-60.964     c10.664-7.388,21.235-14.909,31.786-22.458c14.891,34.238,30.175,69.526,30.175,69.526l4.603,5.74l11.812,18.139l-62.021,39.11     c0,0,9.521-13.967,20.755-36.865C1204.214,1528.838,1205.661,1524.184,1203.068,1518.303z"/>
			<path style="fill:#F47458;" d="M1247.879,1532.828l-64.321,39.895c-2.511,1.263-4.284-0.302-4.195-1.999     c0.184-3.495,6.577-9.941,12.598-19.062c15.751-7.633,40.284-37.123,40.512-41.969     C1238.04,1515.66,1249.021,1531.718,1247.879,1532.828z"/>
		</g>
		<path style="fill:#355389;" d="M1172.91,914.408c5.735-27.956-12.249-55.674-37.465-66.079    c0.168-15.909-4.984-36.062-15.847-46.953c-21.43-21.486-62.324-29.016-78.083-1.625c-20.815,11.776-37.189,37.279-30.982,60.511    c-20.175,20.894-12.511,58.698,16.902,76.55c-0.466,23.442,11.928,46.742,32.427,56.76c4.92,2.404,12.619,5.756,13.593,6.796    c-1.283-1.213,15.184,44.639,66.337,23.654C1191.991,1002.607,1206.931,942.333,1172.91,914.408z"/>
		<path style="fill:#184655;" d="M1070.351,1512.628c6.353-35.219-15.708-122.538-29.161-160.933    c-13.992-39.931-22.889-208.916-22.889-208.916l15.863-18.548l64.741-3.877c0,0-27.546,84.637-27.546,113.718    c0,29.08,13.402,104.15,29.142,143.213c14.521,36.035,8.488,111.592,4.093,136.439    C1092.887,1515.616,1081.786,1514.931,1070.351,1512.628z"/>
		<path style="fill:#3C8F7C;" d="M1115.268,1128.211c2.968,2.963,20.365,23.568,20.365,37.973    c0,14.402-32.792,144.031-24.922,151.888c7.87,7.857,36.984,27.526,55.562,54.931c15.652,23.087,51.545,89.844,58.396,105.724    c-13.525,9.409-25.268,13.699-38.817,18.237c-2.175-11.818-108.199-128.699-120.309-153.141    c-12.11-24.441-18.668-136.176-24.79-151.016c-6.121-14.84-22.451-52.539-22.451-52.539L1115.268,1128.211z"/>
		<path style="fill:#F79C8D;" d="M1020.819,1032.679c0,0-39.966,45.615-84.201,62.779c-6.916,2.684-12.862,7.932-12.862,7.932    c0,4.655,9.324-0.877,9.324-0.877s-3.805,6.692-2.347,12.221c1.457,5.528,11.102,1.854,16.349,1.854    c2.403,0,14.736-13.803,31.39-21.915c19.708-9.599,42.962-18.995,45.806-21.833    C1029.523,1067.602,1022.373,1031.007,1020.819,1032.679z"/>
		<path style="fill:#B75742;" d="M1102.112,904.306c0,0-40.226-4.074-61.213,9.311c-20.987,13.385-34.396,61.104-34.396,81.473    c0,20.368,15.131,127.447,9.314,147.815c0,0,66.474-2.91,89.209-2.91c22.736,0,27.4-8.729,27.4-8.729    s-47.221-46.556-47.221-66.924C1085.205,1043.974,1102.112,904.306,1102.112,904.306z"/>
		<g>
			<path style="fill:#13375B;" d="M552.838,1452.947v69.765h7.548v-63.427h50.008v21.771c-19.333,2.076-34.439,19.933-34.439,41.654     c0,23.118,17.109,41.858,38.214,41.858c21.105,0,38.214-18.74,38.214-41.858c0-21.723-15.107-39.578-34.44-41.654v-21.771h10.379     v-8.268h-10.379v-25.118h10.379v-8.269h-10.379v-27.943h136.816v-12.402h-75.593v-71.038c0-18.975,17.443-40.196,40.785-40.196     h65.002v-12.401H719.95c-27.758,0-52.107,24.578-52.107,52.598v71.038h-49.9v-39.848h-7.548v80.193h-25.317     C567.3,1417.631,552.838,1433.474,552.838,1452.947z M610.394,1451.018H560.45c0.906-14.017,11.604-25.118,24.627-25.118h25.317     V1451.018z"/>
			<path style="fill:#F48C7F;" d="M582.468,1463.902c0,0,1.523,26.901,1.532,26.957c0.56,3.415,2.764,11.854,2.764,14.958     c0,11.665-51.898-9.901-40.268-15.07c1.054-0.468,7.046-6.929,8.55-10.618c2.68-6.571,3.852-19.451,3.852-19.451     L582.468,1463.902z"/>
			<path style="fill:#466EB6;" d="M546.625,1490.637c0,0,12.184,3.568,18.425,4.459c6.24,0.893,14.468-6.618,18.882-4.59     c4.858,2.234,5.138,22.745,5.138,22.745s-65.233,2.171-84.185-0.608C497.319,1511.533,521.715,1498.947,546.625,1490.637z"/>
			<g>
				<path style="fill:#13375B;" d="M842.281,1406.438h14.337v-273.139c0-9.215,9.021-16.711,20.112-16.711h128.968      c3.443,0,6.233-2.667,6.233-5.957l0,0c0-3.289-2.79-5.956-6.233-5.956H876.729c-18.994,0-34.449,12.841-34.449,28.624V1406.438z      "/>
			</g>
			<g>
				<ellipse style="fill:#13375B;" cx="775.066" cy="1436.431" rx="86.515" ry="87.29"/>
				<path style="fill:#13375B;" d="M669.718,1436.431c0,58.704,47.166,106.292,105.349,106.292s105.349-47.588,105.349-106.292      s-47.166-106.293-105.349-106.293S669.718,1377.727,669.718,1436.431z M679.7,1436.431c0-53.141,42.697-96.221,95.366-96.221      c52.669,0,95.366,43.08,95.366,96.221c0,53.142-42.697,96.221-95.366,96.221C722.397,1532.651,679.7,1489.572,679.7,1436.431z"/>
			</g>

				<rect x="844.234" y="1151.329" transform="matrix(-1 -1.224647e-16 1.224647e-16 -1 1730.7953 2466.6455)" style="fill:#466EB6;" width="42.327" height="163.987"/>
			<g>
				<path style="fill:#86B1F2;" d="M634.571,1522.712h8.195v-69.765c0-14.914,12.024-27.048,26.805-27.048h46.948v-8.269H669.57      c-19.298,0-35,15.843-35,35.316V1522.712z"/>
			</g>

				<rect x="579.256" y="1325.871" transform="matrix(-1 -1.224647e-16 1.224647e-16 -1 1269.8246 2670.8379)" style="fill:#13375B;" width="111.313" height="19.096"/>
			<g>
				<rect x="638.668" y="1451.018" style="fill:#86B1F2;" width="77.85" height="8.268"/>
			</g>
			<g>
				<rect x="701.154" y="1377.285" style="fill:#86B1F2;" width="152.628" height="12.402"/>
			</g>

				<rect x="687.837" y="1325.582" transform="matrix(-1 -1.224647e-16 1.224647e-16 -1 1574.3979 2670.5488)" style="fill:#13375B;" width="198.724" height="19.385"/>
			<g>
				<path style="fill:#86B1F2;" d="M880.415,1421.053h12.293v-273.14c0-9.214,7.735-16.71,17.244-16.71h115.921v-11.913H909.951      c-16.286,0-29.536,12.841-29.536,28.623V1421.053z"/>
			</g>
			<path style="fill:#184655;" d="M655.027,1522.712c0,23.117,20.652,41.858,46.127,41.858s46.126-18.74,46.126-41.858     c0-23.118-20.651-41.858-46.126-41.858S655.027,1499.594,655.027,1522.712z"/>
			<path style="fill:#9BC1F9;" d="M673.067,1522.712c0,14.076,12.575,25.487,28.087,25.487c15.512,0,28.086-11.411,28.086-25.487     c0-14.077-12.575-25.488-28.086-25.488C685.642,1497.224,673.067,1508.635,673.067,1522.712z"/>
			<path style="fill:#86B1F2;" d="M701.409,1544.588L701.409,1544.588c5.941,0,10.756-4.815,10.756-10.756v-29.035h-21.512v29.035     C690.654,1539.773,695.47,1544.588,701.409,1544.588z"/>
			<path style="fill:#13375B;" d="M588.663,1253.649c13.338-13.339,199.24-6.909,199.24-6.909s-157.492,38.433-166.688,43.447     c-9.196,5.012-43.419,174.15-43.458,176.363c-9.5-2.262-15.252-0.55-24.919-2.531     C554.384,1434.631,567.171,1275.141,588.663,1253.649z"/>
			<path style="fill:#F7A491;" d="M606.782,1464.722c0,0,1.523,26.901,1.532,26.956c0.56,3.416,2.764,11.855,2.764,14.96     c0,11.664-51.898-9.901-40.268-15.071c1.053-0.468,8.204-6.648,8.55-10.618c0.534-6.116,0.251-15.849,0.251-15.849     L606.782,1464.722z"/>
			<path style="fill:#466EB6;" d="M570.939,1491.456c0,0,12.184,3.568,18.425,4.46c6.241,0.893,14.468-6.619,18.882-4.59     c4.858,2.232,5.138,22.744,5.138,22.744s-65.232,2.171-84.186-0.608C521.632,1512.353,546.029,1499.767,570.939,1491.456z"/>
			<path style="fill:#355389;" d="M816.888,1284.915c0,0-1.605,42.2-15.651,42.704c-14.047,0.505-104.181,2.519-154.948-2.037     l-34.158,150.966l-40.113-3.863c0,0,12.082-100.827,16.378-139.177c4.227-37.728,16.411-69.384,37.74-70.149     c21.33-0.767,161.556-22.464,161.556-22.464L816.888,1284.915z"/>
			<path style="fill:#50BFA5;" d="M854.695,1087.913c0,0,22.757,5.771,19.671,50.22c-3.086,44.448-27.669,178.928-73.129,189.486     c-45.46,10.559-75.071-85.17-75.071-85.17s28.683-9.426,40.626-53.921c8.274-30.825,30.455-100.389,36.009-103.735     C816.592,1076.482,854.695,1087.913,854.695,1087.913z"/>
			<path style="fill:#86B1F2;" d="M759.424,1386.834h12.292v-80.587c0-18.974,18.936-40.196,44.277-40.196h70.568v-12.402h-70.568     c-30.135,0-56.569,24.579-56.569,52.599V1386.834z"/>
			<ellipse style="fill:#9BC1F9;" cx="886.561" cy="1447.947" rx="99.362" ry="100.252"/>
			<path style="fill:#9BC1F9;" d="M765.569,1447.947c0,67.42,54.17,122.075,120.992,122.075     c66.822,0,120.992-54.655,120.992-122.075c0-67.422-54.17-122.076-120.992-122.076     C819.739,1325.871,765.569,1380.525,765.569,1447.947z M777.034,1447.947c0-61.033,49.037-110.51,109.527-110.51     c60.49,0,109.527,49.477,109.527,110.51c0,61.031-49.037,110.508-109.527,110.508     C826.071,1558.455,777.034,1508.979,777.034,1447.947z"/>
			<ellipse style="fill:#184655;" cx="886.561" cy="1447.947" rx="81.948" ry="82.682"/>
			<path style="fill:#13375B;" d="M868.122,1447.947c0,10.273,8.256,18.604,18.439,18.604c10.183,0,18.439-8.33,18.439-18.604     c0-10.275-8.255-18.604-18.439-18.604C876.378,1429.343,868.122,1437.672,868.122,1447.947z"/>

				<rect x="521.071" y="1513.754" transform="matrix(-1 -1.224647e-16 1.224647e-16 -1 1167.2513 3049.1768)" style="fill:#355389;" width="125.109" height="21.669"/>

				<rect x="575.159" y="1513.754" transform="matrix(-1 -1.224647e-16 1.224647e-16 -1 1221.3387 3049.1768)" style="fill:#86B1F2;" width="71.021" height="21.669"/>
			<g>
				<rect x="697.057" y="1344.736" style="fill:#86B1F2;" width="8.194" height="190.688"/>
			</g>
			<path style="fill:#13375B;" d="M696.288,1525.145c0,2.818,2.265,5.104,5.058,5.104c2.793,0,5.058-2.285,5.058-5.104     c0-2.818-2.264-5.103-5.058-5.103C698.553,1520.042,696.288,1522.326,696.288,1525.145z"/>
			<g>
				<path style="fill:#184655;" d="M840.956,968.913c0,0,15.942-10.778,22.682,8.101c-0.052-0.149,5.629-0.094,6.396,0.166      c3.278,1.108,6.446,4.524,9.369,6.395c10.411,6.664,15.211,19.614,15.777,31.503c0.688,14.432-5.276,24.985-14.767,35.406      c-2.796,3.071-5.785,6.068-9.446,8.03c-4.417,2.368-7.91,0.489-12.062,1.494c-3.496,0.846-4.724,4.538-8.847,3.206      c-5.78-1.866-11.848-9.104-19.014-8.032c-7.157,1.07-23.684-5.371-23.727-5.388c-21.232-8.279-6.895-49.371-2.826-63.956      C808.318,972.125,827.821,963.952,840.956,968.913z"/>
				<path style="fill:#F7A491;" d="M821.774,1062.282l-5.516,15.048l-2.972,8.41c0,0-0.206,15.053,3.304,18.953      c6.041,6.713,30.887-18.164,30.887-18.164l7.869-47.334L821.774,1062.282z"/>
				<path style="fill:#F47458;" d="M852.793,1054.535c-9.449,14.649-25.729,21.344-36.587,22.937l5.568-15.19l33.572-23.086      L852.793,1054.535z"/>
				<path style="fill:#F7A491;" d="M848.893,990.574c-12.651-7.737-29.254-1.865-34.461,11.788      c-2.263,5.935-4.789,13.467-6.805,21.868c-4.848,20.204,1.293,42.267,10.504,44.301c9.212,2.034,37.57-5.476,44.852-34.071      C867.479,1016.805,862.169,998.692,848.893,990.574z"/>
				<path style="fill:#F7A491;" d="M855.693,1035.238c-0.988,4.475,1.177,8.758,4.836,9.565c3.659,0.808,7.427-2.165,8.415-6.64      c0.989-4.475-1.177-8.758-4.836-9.566C860.449,1027.79,856.682,1030.762,855.693,1035.238z"/>
				<path style="fill:#184655;" d="M827.244,1043.621c0,0,12.14,3.964,13.131,8.424c0.991,4.459-0.496,10.901-6.442,15.855      c-5.946,4.956-18.665,1.9-22.133-0.825c-3.468-2.726-6.111-14.287-2.643-20.729      C812.626,1039.904,827.244,1043.621,827.244,1043.621z"/>
				<path style="fill:#F7A491;" d="M831.208,1052.953c0,0-0.073,4.969-1.734,5.863c-1.611,0.867-3.647,1.598-5.534,1.775      c-3.055,0.289-5.813-1.014-7.419-3.367c-0.159-0.232-0.302-0.473-0.426-0.721c-1.239-2.478-1.487-6.854-1.487-6.854      s5.121-1.238,8.093-0.743C825.674,1049.402,831.208,1052.953,831.208,1052.953z"/>
			</g>
		</g>
		<path style="fill:#F79C8D;" d="M962.487,1110.897c4.81-4.801,27.109-12.221,44.016-24.441c7.477-5.405,21.85-12.518,35.837-20.255    c10.218,5.662,19.46,12.77,26.359,21.273c-25.309,11.632-52.775,23.331-56.95,27.498c-7.871,7.856-21.57,25.605-24.776,25.605    c-3.206,0-27.546-7.129-31.19-10.767C952.14,1126.174,957.678,1115.698,962.487,1110.897z"/>
		<path style="fill:#F47458;" d="M1042.34,1066.201c17.641-9.758,34.664-20.508,36.453-30.084    c3.207-17.167-11.368-91.366-3.206-105.623c8.162-14.258,26.526-26.188,26.526-26.188c2.915,0,13.409,6.401,16.323,19.205    c2.916,12.803-2.332,128.028-5.247,138.504c-1.369,4.919-21.318,24.499-43.724,34.796    C1062.565,1088.309,1052.558,1071.863,1042.34,1066.201z"/>
		<path style="fill:#F7A491;" d="M860.616,1221.601l-70.336,18.43c0,0-20.679,14.912-29.979,17.872s-20.666,13.205-18.438,16.35    c2.228,3.145,13.912-7.535,15.81-7.21c1.898,0.325-6.866,12.966-8.289,21.255c-1.423,8.289-4.27,16.335,0.482,15.686    c4.751-0.65,8.201-19.319,8.201-19.319s7.307-14.109,8.487-12.444c1.179,1.664-4.88,11.354-4.88,11.354    s-1.438,10.473-2.071,14.157c-0.472,2.75,2.059,10.999,4.215,7.968c1.268-1.782,0.67-8.593,2.142-12.479    c3.021-7.973,7.954-14.294,7.954-14.294s-5.284,23.878-1.963,24.445c3.322,0.568,6.758-19.21,6.758-19.21    s8.117-16.472,11.658-17.943c3.542-1.469,13.28-7.742,20.811-10.355c7.531-2.611,38.665,5.999,52.555,6.182    c13.89,0.182,36.429-8.416,38.299-19.311c0.571-3.329-1.506-7.008-4.667-10.511    C888.179,1222.045,873.891,1218.122,860.616,1221.601z"/>
		<path style="fill:#96D9C9;" d="M854.695,1087.913c0,0,21.279-3.788,40.542,30.864c19.263,34.652,6.794,123.957,6.794,123.957    l-41.416-21.134L854.695,1087.913z"/>
		<path style="fill:#F48C7F;" d="M960.341,1105.891c0,0-8.383,11.93-10.88,11.93c-2.497,0-15.601,0.821-17.659-1.232    c-2.058-2.055,7.402-17.552,10.792-17.552c3.389,0-4.014,10.237-3.121,11.128c0.892,0.891,8.204-16.202,11.95-14.6    c3.746,1.603-7.313,13.531-6.064,14.777c1.248,1.246,9.096-13.531,12.129-13.531c3.032,0-7.132,13.357-6.065,14.422    C952.489,1112.298,958.914,1104.467,960.341,1105.891z"/>
		<path style="fill:#F7A491;" d="M1081.225,868.398c0,0-4.479,24.625-3.583,34.339c0.896,9.713-3.416,41.02-22.762,41.123    c-19.346,0.103-6.199-32.503-4.376-42.023c1.822-9.519,4.779-46.283,4.779-46.283L1081.225,868.398z"/>
		<path style="fill:#F47458;" d="M1054.088,869.495c0.301-8.061,1.757-14.469,1.757-14.469l25.379,13.372    c0,0-0.916,5.036-1.837,11.451C1068.032,882.274,1059.008,876.965,1054.088,869.495z"/>
		<path style="fill:#F7A491;" d="M1081.775,796.862c0,0,10.901,3.882,16.833,15.733c5.932,11.851,7.887,45.027-16.023,57.772    c-23.91,12.745-39.684-10.761-38.199-31.824C1045.871,817.481,1052.498,789.885,1081.775,796.862z"/>
		<path style="fill:#F7A491;" d="M1037.28,832.676c-0.63,5.46,1.301,10.118,4.313,10.404c3.012,0.286,5.964-3.909,6.594-9.369    c0.629-5.46-1.301-10.118-4.313-10.404C1040.862,823.021,1037.91,827.216,1037.28,832.676z"/>
		<path style="fill:#F7A491;" d="M1096.5,841.867c-2.102,5.286-1.055,10.835,2.338,12.394c3.392,1.559,7.847-1.462,9.948-6.748    c2.102-5.286,1.056-10.834-2.337-12.393C1103.056,833.561,1098.603,836.582,1096.5,841.867z"/>
	</g>


	<g>
		<g>
			<g>
				<path style="fill:#F7A491;" d="M1344.365,1554.493c0,0,14.048,33.809,14.058,33.869c0.608,3.74,3.005,12.98,3.005,16.38      c0,12.773-56.426-10.842-43.78-16.503c1.144-0.513,4.735-4.606,5.112-8.952c0.58-6.698-4.753-15.099-4.753-15.099      L1344.365,1554.493z"/>
				<path style="fill:#184655;" d="M1364.638,1608.956c0,0-1.313-19.149-6.056-21.404c-4.45-2.116-12.499,6.427-18.784,5.45      c-6.284-0.977-20.446-6.259-20.446-6.259c-25.085,9.101-43.744,14.892-40.005,22.213l0,0H1364.638z"/>
				<path style="fill:#F7A491;" d="M1257.956,1564.694c0,0,8.186,23.607,8.195,23.668c0.608,3.74,3.005,12.98,3.005,16.38      c0,12.773-56.426-10.842-43.78-16.503c1.145-0.513,4.735-4.606,5.112-8.952c0.58-6.698-4.753-15.099-4.753-15.099      L1257.956,1564.694z"/>
				<g>
					<path style="fill:#355389;" d="M1180.087,1116.49l-20.428,53.285c0,0-13.328,127.165-5.567,203.289       c3.246,31.835,73.517,202.258,73.517,202.258l34.901-5.023l-36.214-199.639l6.668-79.349l24.343-152.552L1180.087,1116.49z"/>
					<path style="fill:#466EB6;" d="M1204.575,1122.802l-12.512,55.679c0,0,5.191,127.756,23.874,201.959       c7.813,31.031,101.977,189.508,101.977,189.508l33.809-10.016l-64.688-192.309l6.035-189.499l-8.867-44.447L1204.575,1122.802z       "/>
				</g>
				<path style="fill:#184655;" d="M1272.366,1608.956c0,0-1.351-18.974-6.412-21.252c-4.806-2.164-13.621,6.274-20.406,5.298      c-6.785-0.977-20.032-4.884-20.032-4.884c-27.083,9.101-49.271,13.517-45.234,20.838l0,0H1272.366z"/>
				<g>
					<path style="fill:#F48C7F;" d="M1164.944,674.164c-7.791,11.189-9.378,9.417-10.337,10.879       c-1.134,1.729-0.999,29.638-0.999,29.638s-0.145,82.242,0.003,86.686l34.781,78.308l-33.655,27.515       c0,0-35.589-86.152-36.668-90.965c-1.079-4.814,12.081-115.702,12.924-125.507c0,0-3.324-12.154-5.161-19.85       c-1.837-7.694-0.167-15.742-0.353-17.981c-0.027-0.33-0.21-7.815,2.021-17.041c1.923-7.951,3.761,0.543,3.761,0.543       s-0.902,15.424,0.329,15.31c0.949-0.088,0.943-8.55,2.978-17.372c0.523-2.268,1.048-4.504,1.547-6.555       c1.309-5.382,5.005-6.051,4.538-0.183c-0.165,2.072-0.523,5.506-1.125,7.911c-0.651,2.598-0.405,5.211-0.617,7.485       c-0.42,4.515-0.783,7.8-0.587,7.719c0.255-0.104,0.806,0.862,1.437-1.526c0.758-2.872,1.01-9.357,2.455-13.488       c0.819-2.342,2.23-7.346,2.23-7.346s3.179-7.848,3.671-7.772c2.663,0.411,2.003,6.706,0.47,9.735       c0.026,2.448-1.608,7.668-1.608,7.668s-0.92,11.345,0.688,11.531c1.321,0.153,8.781-26.492,11.424-25.891       c2.158,0.491,0.277,8.612,0.277,8.612s-1.517,4.821-1.898,6.463c-0.446,1.925-1.337,7.801-1.337,7.801       s-2.15,20.618-0.616,20.664c1.535,0.047,5.489-1.403,6.067-2.626c0.578-1.222,0.448-4.04,1.026-5.263       c0.578-1.221,2.391-2.302,3.964-1.678c1.571,0.623,1.071,7.642,1.071,7.642S1167.192,670.935,1164.944,674.164z"/>
					<path style="fill:#3C8F7C;" d="M1180.987,851.739l-47.341,29.204c0,0,18.052,43.605,30.316,59.226       c14.879,18.95,42.026,27.774,43.855,25.489c5.134-6.414,15.301-14.282,14.79-25.319       C1220.837,902.148,1180.987,851.739,1180.987,851.739z"/>
					<path style="fill:#F47458;" d="M1144.89,679.44c1.657-5.91,5.006-10.077,10.627-12.285       C1148.596,666.683,1143.898,673.586,1144.89,679.44z"/>
				</g>
				<path style="fill:#50BFA5;" d="M1269.994,901.715c0,0,26.332,3.688,33.263,8.814c7.806,5.773,31.977,32.703,31.977,32.703      s-50.309,145.145-48.362,170.97c1.948,25.825,7.465,64.072,7.465,64.072s-97.697,6.211-134.699-8.499      c0,0,11.685-58.516,11.685-73.88s8.532-131.452,12.174-143.289c2.736-8.891,13.143-46.315,30.994-50.237      C1232.343,898.446,1269.994,901.715,1269.994,901.715z"/>
				<path style="fill:#F7A491;" d="M1262.804,860.275l6.409,41.415c0,0-18.723,31.68-32.933,27.241      c-11.923-3.724-9.559-27.943-9.559-27.943s6.499-24.318,4.55-36.487C1229.322,852.333,1262.804,860.275,1262.804,860.275z"/>
				<path style="fill:#F47458;" d="M1231.271,864.502c-1.949-12.169,31.533-4.227,31.533-4.227l0.541,3.565      c-0.98,2.384-2.177,4.425-3.631,5.99c-7.478,8.052-19.168,12.889-29.276,13.255      C1231.449,876.524,1232.071,869.492,1231.271,864.502z"/>
				<g>
					<path style="fill:#F7A491;" d="M1268.298,799.47c0.946-0.344,7.585,48.952-5.014,62.515       c-12.599,13.564-37.144,18.003-45.949,7.321c-9.739-11.816-9.25-64.797,10.338-78.75       C1247.261,776.603,1268.298,799.47,1268.298,799.47z"/>
					<path style="fill:#13375B;" d="M1235.129,764.186c15.14,3.089,24.947,12.346,28.55,16.291       c6.874,0.812,16.218,4.613,25.867,20.596c11.863,19.653,3.103,41.426-10.708,52.109c-13.81,10.683-13.549,23.153-13.549,23.153       l-2.252-6.513c-1.611-4.836-2.27-9.963-1.73-15.034c0.323-3.043,0.975-6.334,2.234-9.039       c3.321-7.134-7.136-11.874-10.067-17.81c-2.257-4.57-2.367-15.026-5.924-22.581l-4.248-5.767c0,0-9.8-7.63-19.388-5.477       C1214.325,796.267,1215.704,760.223,1235.129,764.186z"/>
					<path style="fill:#F7A491;" d="M1254.118,836.711c-0.101,6.015,2.632,10.939,6.104,10.998       c3.471,0.059,6.366-4.769,6.466-10.783c0.1-6.015-2.633-10.939-6.104-10.998S1254.218,830.697,1254.118,836.711z"/>
				</g>
				<path style="fill:#96D9C9;" d="M1367.912,995.259l-44.038,34.603c0,0-19.446-18.781-29.212-39.555      c-9.887-21.029-1.22-82.408,9.302-79.556C1327.502,917.129,1367.912,995.259,1367.912,995.259z"/>
			</g>
		</g>
		<g>
			<g>
				<path style="fill:#355389;" d="M1342.289,1053.374c48.505,20.381,64.118-24.15,62.901-22.973      c0.924-1.01,8.224-4.266,12.89-6.601c19.438-9.73,31.189-32.358,30.747-55.126c27.89-17.338,35.157-54.054,16.027-74.346      c5.886-22.564-9.641-47.333-29.378-58.77c-14.942-26.602-52.641-15.217-72.961,5.65c-10.301,10.579-16.264,26.079-16.104,41.53      c-23.91,10.106-36.419,37.025-30.982,64.177C1283.17,974.037,1292.794,1032.577,1342.289,1053.374z"/>
				<g>
					<path style="fill:#B75742;" d="M1519.526,1198.55l8.281-2.132c-0.157-0.638-15.887-64.449-32.649-127.956       c-9.852-37.324-18.13-67.252-24.604-88.949c-12.763-42.772-15.605-43.961-18.113-45.011l-3.235,8.079       c-0.611-0.255-0.907-0.592-0.91-0.595c2.041,2.354,9.987,19.988,39.632,132.596       C1504.282,1136.708,1519.375,1197.939,1519.526,1198.55z"/>
				</g>
				<g>
					<path style="fill:#F7A491;" d="M1239.621,1196.698c0,0,3.725-2.974,4.887-4.058c1.363-1.271,5.151-5.398,5.151-5.398       s12.526-14.991,11.346-15.831c-1.18-0.841-4.76,0.53-5.856,1.182c-1.096,0.653-2.442,1.313-3.539,1.965       c-1.096,0.653-2.486,0.376-3.392-0.936c-0.907-1.311,2.901-4.867,4.461-5.833c4.863-3.013,19.474-8.434,20.996-9.074       c1.8-0.757,18.752-30.774,25.375-40.596c-0.001-0.001-0.003-0.002-0.004-0.003c10.364-16.4,20.197-33.779,21.287-35.521       l22.301-80.094l32.444-3.221c0,0-23.505,89.235-25.189,93.563c-0.801,2.06-27.756,38.203-27.772,38.194       c-14.39,16.957-27.114,31.863-29.477,34.798c0,0-4.717,10.679-7.32,17.655c-2.603,6.979-7.793,12.351-8.825,14.197       c-0.152,0.273-3.358,6.827-9.959,12.87c-5.689,5.209-2.667-2.394-2.667-2.394s8.816-11.585,7.789-12.141       c-0.791-0.428-5.235,6.19-11.47,12.021c-1.604,1.499-3.191,2.972-4.66,4.314c-3.856,3.521-7.109,2.108-3.658-2.234       c1.219-1.534,3.304-4.03,5.042-5.595c1.877-1.689,3.058-3.861,4.42-5.528c2.702-3.31,4.715-5.688,4.518-5.728       c-0.254-0.052-0.179-1.096-1.93,0.441c-2.105,1.848-5.712,6.785-9.018,9.258c-1.874,1.401-5.612,4.575-5.612,4.575       s-6.62,4.469-6.967,4.151c-1.875-1.715,1.953-6.291,4.749-7.855c1.266-1.928,5.293-5.152,5.293-5.152s6.686-8.387,5.521-9.374       c-0.956-0.812-20.818,16.11-22.577,14.257C1233.876,1202.063,1239.621,1196.698,1239.621,1196.698z"/>
					<path style="fill:#F47458;" d="M1275.299,1172.879c0,0-9.971,3.805-14.164-1.338c0,0,1.266,3.82,5.281,4.521       C1270.431,1176.763,1275.299,1172.879,1275.299,1172.879z"/>
				</g>
				<path style="fill:#F7A491;" d="M1414.294,1219.358l-18.379,169.939c0,0,8.983,35.938,7.9,46.147      c-1.083,10.209-19.978,144.141-19.978,144.141l0.854,7.356l0.459,21.792l-70.627,0.55c0,0,14.886-6.898,35.707-20.532      c1.54-1.008,5.088-4.223,5.951-10.633c5.56-41.28-5.44-178.976-5.44-178.976l-8.665-179.235L1414.294,1219.358z"/>
				<path style="fill:#F7A491;" d="M1454.477,1251.56c3.96,1.035,10.057,146.886,13.337,153.351      c20.795,40.981,25.738,165.578,25.738,165.578l8.579,17.447l-1.969,16.813c0,0-15.52,9.205-26.409,2.995l1.684-16.834      l1.286-22.49l-52.465-155.231l-28.708-158.335L1454.477,1251.56z"/>
				<path style="fill:#184655;" d="M1320.049,1330.61l-2.495-100.634c-0.432-28.441,8.729-55.726,19.979-81.625l23.805-41.439      c7.669,2.52,11.894-20.951,19.955-20.017c6.076,0.705,10.24,2.156,15.884,2.502c10.638,0.652,17.097,22.156,28.487,20.808      c0.053,0.683,7.128,3.395,7.3,3.877c5.448,15.21,19.355,31.481,26.778,76.642c8.427,51.262,8.391,139.361,7.338,145.377      C1386.512,1339.772,1367.309,1342.688,1320.049,1330.61z"/>
				<path style="fill:#184655;" d="M1385.489,1614.336h-72.909c-2.696-0.252-3.354-2.531-2.418-3.938      c1.925-2.894,10.43-5.016,19.991-9.625c16.77,1.828,51.854-10.941,54.501-14.966      C1386.181,1593.868,1386.987,1613.991,1385.489,1614.336z"/>
				<path style="fill:#184655;" d="M1502.087,1587.89c0,0-6.476,19.03-13.478,18.481c-7.001-0.549-13.128-15.554-13.128-15.554      s-2.625,12.626-1.4,19.579c1.225,6.954,11.202,14.091,18.029,10.981C1498.937,1618.266,1508.214,1602.162,1502.087,1587.89z"/>
				<path style="fill:#B75742;" d="M1366.558,1041.791c0,0-10.161-1.299-19.888-4.807c-5.842-2.107-15.557-6.717-15.557-6.717      s5.457-47.409,19.197-76.118c5.679-11.865,11.421-17.591,19.429-18.964C1369.8,935.175,1366.558,1041.791,1366.558,1041.791z"/>
				<path style="fill:#F47458;" d="M1348.909,988.142c2.059-7.691,6.659-17.805,9.284-24.779      c4.453-11.842,5.776-22.904,9.704-27.645c2.121-2.549,29.322-2.17,32.662-2.507c1.377-0.148,6.822,0.21,12.089,0.541      l-0.012-0.014c3.087,0.358,33.738,2.832,38.185,4.804c22.081,22.128,32.761,51.922,49.361,84.472      c0,0-12.435,7.313-22.349,11.927c-4.306,2.001-12.56,5.204-12.56,5.204l-19.135-32.954c-0.211-0.164-1.204-1.253-1.492-0.548      c-0.441,1.096-14.414,103.796-14.414,103.796s-56.644,4.761-69.939-1.772c0,0-2.458-68.563-7.352-88.687      C1351.135,1012.584,1345.59,1000.532,1348.909,988.142z"/>
				<path style="fill:#F7A491;" d="M1416.373,902.231c0,0-4.247,23.916-3.397,33.351c0.85,9.434-3.239,39.839-21.584,39.939      c-18.344,0.1-5.877-31.568-4.15-40.813c1.728-9.245,4.531-44.951,4.531-44.951L1416.373,902.231z"/>
				<path style="fill:#F47458;" d="M1390.678,903.371c0.286-7.829,1.096-13.614,1.096-13.614l24.599,12.474      c0,0-0.868,4.891-1.741,11.121C1403.864,915.708,1395.344,910.625,1390.678,903.371z"/>
				<path style="fill:#F7A491;" d="M1416.896,832.753c0,0,10.336,3.771,15.96,15.281c5.624,11.51,7.479,43.731-15.193,56.109      c-22.671,12.378-37.628-10.451-36.22-30.908C1382.85,852.779,1389.135,825.978,1416.896,832.753z"/>
				<path style="fill:#F7A491;" d="M1377.06,866.288c1.424,5.136,4.802,8.605,7.546,7.749c2.744-0.855,3.814-5.713,2.391-10.849      c-1.424-5.135-4.803-8.604-7.547-7.749C1376.706,856.295,1375.636,861.153,1377.06,866.288z"/>
				<path style="fill:#F7A491;" d="M1430.858,876.463c-1.993,5.133-1,10.523,2.216,12.037c3.217,1.514,7.44-1.42,9.434-6.554      c1.993-5.134,1-10.522-2.217-12.037C1437.074,868.396,1432.851,871.33,1430.858,876.463z"/>
				<path style="fill:#B75742;" d="M1437.741,1198.17v32.631c0,16.965,11.949,30.719,26.686,30.719h27.453v-76.07h-43.089      c-2.95,0-5.627,1.331-7.607,3.501C1439.063,1191.258,1437.741,1194.535,1437.741,1198.17z"/>
				<path style="fill:#F47458;" d="M1441.184,1188.95h0.182c5.664,0,10.254,5.285,10.254,11.804v24.004      c0,20.303,14.298,36.762,31.936,36.762h16.713c17.638,0,31.935-16.459,31.935-36.762v-23.885      c0-8.519-5.998-15.424-13.398-15.424h-70.016C1445.841,1185.449,1443.164,1186.78,1441.184,1188.95z"/>
				<g>
					<path style="fill:#B75742;" d="M1437.665,1197.504l8.539-0.04c-0.003-0.604-0.271-61.162,0.541-122.914       c0.476-36.241,1.226-65.789,2.227-87.824c1.712-37.649,3.801-44.397,4.399-45.497c0.104-2.029-0.931-6.727-0.931-6.727       c-1.518-0.636-3.246-0.45-4.621,0.498c-2.201,1.518-3.566,4.424-4.919,16.098c-0.838,7.229-1.589,17.488-2.234,30.495       c-1.081,21.794-1.89,51.684-2.407,88.838C1437.382,1133.645,1437.661,1196.873,1437.665,1197.504z"/>
				</g>
				<path style="fill:#F8A492;" d="M1394.804,1139.514c-1.092,0.232-8.612,0.675-8.612,0.675s-11.028-6.679-12.603-3.519      c-0.483,0.948,11.426,7.732,11.426,7.732s11.511,0.379,14.263,0.295c5.125-0.126,15.9-1.58,31.927-13.506      c13.863-7.08,83.535-47.726,84.563-55.458c0.609-4.572-9.997-28.425-20.269-50.022c-4.537,2.529-11.574,6.385-17.665,9.229      c-2.877,1.327-7.519,3.202-10.271,4.298c6.658,12.854,12.96,26.086,12.141,28.825c-0.714,2.402-60.22,47.81-60.22,47.81      l-11.888-1.623c0,0-20.963,2.486-21.446,4.994c-0.503,2.486,8.843,1.833,10.082,2.213c0.693,0.21,2.08,0.695,3.256,1.474      c-3.445,1.644-8.906,4.277-11.973,4.404c-7.037,0.253-15.186-0.78-16.068,0.23c-1.029,1.181,9.662,4.426,17.203,4.89      c3.087,0.168,4.957-0.78,6.301-0.527c1.828,0.38-1.386,1.854-6.532,1.538c-2.941-0.189-8.066-1.812-11.3-2.275      c-5.314-0.759-8.297-0.337-8.738,0.126c-0.735,0.759,15.082,5.837,15.082,5.837s10.292,1.349,12.645,1.223      C1396.106,1138.377,1397.534,1138.967,1394.804,1139.514z"/>
			</g>
		</g>
	</g>
	<g>
		<g>
			<path style="fill:#F7A491;" d="M2007.516,1592.593c-1.002-7.167,1.246-19.498,6.857-38.786     c-11.112,0.025-20.456-4.894-31.813-4.722c-3.103,18.14-7.906,47.924-7.906,47.924l-0.516,23.546l79.078,0.594     c0,0-0.658,0.34-23.971-14.391C2027.521,1605.668,2008.481,1599.519,2007.516,1592.593z"/>
			<path style="fill:#50BFA5;" d="M1973.761,1626.607h81.633c3.019-0.273,3.755-2.735,2.708-4.254     c-2.156-3.126-18.076-10.632-28.781-15.612c-18.775,1.975-51.776-5.753-54.74-10.103     C1969.431,1611.042,1972.082,1626.234,1973.761,1626.607z"/>
		</g>
		<g>
			<path style="fill:#F7A491;" d="M1909.006,1592.593c-1-7.167-2.701-16.144-0.207-40.044c-11.113,0.025-21.688-2.058-33.044-1.887     c0,18.658,0.391,46.347,0.391,46.347l-0.514,23.546l79.078,0.594c0,0-0.658,0.34-23.973-14.391     C1929.014,1605.668,1909.973,1599.519,1909.006,1592.593z"/>
			<path style="fill:#50BFA5;" d="M1875.252,1626.607h81.633c3.02-0.273,3.756-2.735,2.709-4.254     c-2.156-3.126-18.078-10.632-28.781-15.612c-18.776,1.975-51.777-5.753-54.741-10.103     C1870.923,1611.042,1873.574,1626.234,1875.252,1626.607z"/>
		</g>
		<path style="fill:#F7A491;" d="M1966.474,909.728l29.745-31.381c0,0,31.838,17.51,68.954,34.24    c10.204-17.759,26.856-76.176,27.752-78.962c0.897-2.796-19.505-37.887-14.94-38.767c4.564-0.879,10.489,18.74,15.313,16.752    c4.824-1.988,17.229-47.506,20.132-45.021c5.432,4.648-6.525,28.311-3.662,30.034c2.864,1.724,10.128-26.229,15.658-25.037    c5.531,1.192-9.338,25.447-7.707,27.779c1.632,2.331,17.172-20.424,20.383-15.153c1.744,2.862-14.335,19.815-11.028,21.711    c3.308,1.897,17.798-8.781,19.527-5.322c1.73,3.459-13.521,7.063-17.755,15.817c-4.232,8.753-11.933,12.16-14.486,28.71    c-2.551,16.535-9.539,105.005-27.572,112.107C2071.041,963.438,1966.474,909.728,1966.474,909.728z"/>
		<path style="fill:#355389;" d="M1985.691,1078.991l-24.121,13.454l-49.031,74.969l87.687,206.388c0,0-9.876,31.036-13.093,46.543    c-3.367,16.225-11.623,155.476-11.623,155.476l37.408,0.629c0,0,35.531-148.243,41.549-196.358    c7.308-58.429-37.185-197.582-37.185-197.582c-8.297-28.392-26.186-86.797-26.186-86.797S1986.721,1081.48,1985.691,1078.991z"/>
		<path style="fill:#466EB6;" d="M1901.732,1050.834c0,0,2.494,17.635-7.482,37.75c-6.081,12.263-16.585,21.877-24.107,36.898    c-14.236,28.428-21.966,68.811-16.626,94.765c0,0,29.433,112.391,28.264,153.466c-0.431,15.148-5.627,42.438-8.952,60.888    c-2.939,16.31-3.933,139.333-3.933,139.333l41.772-1.258l31.989-198.455l13.524-176.407l29.505-118.818L1901.732,1050.834z"/>
		<path style="fill:#B75742;" d="M1990.2,791.857c-3.693-17.443-7.506-34.95-24.839-47.514    c-14.026-10.168-29.099-13.073-45.078-7.277c-45.275,16.42-20.923,52.351-77.108,90.646c-17.459,11.9-24.085,16.048-36.614,31.906    c-17.537,22.195-27.122,51.978-18.307,76.494c18.23,50.703,74.719,65.352,104.27,54.602    c55.003-20.01,100.826-89.767,103.872-108.802C1999.654,861.539,1992.578,803.085,1990.2,791.857z"/>
		<path style="fill:#50BFA5;" d="M1998.982,929.443c13.313,6.154,37.42,15.392,37.42,15.392l13.717-43.38    c-77.523-44.099-71.442-36.983-129.627-36.117c-46.483,0.663-65.964-8.213-105.992,99.843c0,0,30.471,13.689,41.381,18.083    c4.691-13.357,13.171-39.997,18.116-24.81c7.47,22.944,12.942,46.108,16.61,69.954c2.331,14.136,7.401,32.23,4.736,46.634    c0,0,31.657,6.518,55.837,7.578c0.068,0.003,0.139,0.007,0.207-0.004c11.684-0.298,23.65-1.328,34.306-3.625    c0,0,4.74-100.239,7.273-104.422c2.806-4.632,14.651-19.595,4.572-41.974C1995.758,928.64,1996.237,928.174,1998.982,929.443z"/>
		<path style="fill:#F7A491;" d="M1940.788,1103.431c0.548,0.075,3.017-0.25,5.037-0.2c2.793,0.051,5.237,0.475,5.237,0.475    s1.098-0.948,3.191-1.921c0.873-0.399,2.295-0.548,3.268-0.997c0.998-0.474,1.846-1.322,2.793-1.746    c2.47-1.072,4.738-1.322,5.487-0.025c0.623,1.073-13.118,9.478-13.118,9.478c-12.719,0.074-26.036,6.559-55.514-12.669    c-16.834-7.357-98.583-47.733-100.229-56.536c-0.923-4.938,11.622-43.17,21.872-72.198c7.906,3.542,24.714,11.023,34.117,14.963    c-8.629,18.28-18.804,42.521-17.732,45.488c0.275,0.773,1.296,2.17,56.561,38.356c1.396,0.897,2.818,1.846,4.265,2.793    c3.891,2.544,8.056,5.263,12.47,8.13l15.762-1.646c0,0,24.963,1.721,25.711,4.563c0.324,1.297-1.746,1.945-4.289,2.32h-0.074    c-0.375,0.049-0.749,0.099-1.123,0.149c-0.025,0-0.049,0-0.049,0c-2.744,0.324-5.637,0.375-6.336,0.624    c-0.797,0.274-2.394,0.897-3.766,1.845c15.563,6.36,14.365,4.091,19.527,3.767c1.297-0.101,2.668,0.274,3.891,0.175    c2.095-0.175,3.766-1.422,5.387-1.521c2.369-0.125,4.29,0.972,4.713,1.421c0.549,0.55-0.473,1.347-2.469,2.245    c-12.02,5.212-21.971,3.217-25.162,3.99c-2.146,0.523,1.771,1.322,7.88,0.673c1.521-0.149,3.517,0.399,5.537-0.075    c1.347-0.299,2.568-1.172,3.89-1.496c1.223-0.299,2.469-0.274,3.492-0.474c1.346-0.249,3.217-1.272,4.289-1.396    c3.99-0.449,5.935,0.249,6.385,0.624c0.922,0.822-17.209,7.78-17.209,7.78s-12.493,1.796-15.287,1.796    C1939.191,1102.184,1937.521,1102.932,1940.788,1103.431z"/>
		<path style="fill:#F7A491;" d="M1926.216,822.563c0,0-3.545,28.623-5.635,38.56c-2.187,10.398-5.476,43.143,16.087,48.46    c21.561,5.317,14.898-35.629,15.254-46.202c0.357-10.572,6.467-47.439,6.467-47.439L1926.216,822.563z"/>
		<path style="fill:#F47458;" d="M1925.043,831.696c0.22,0.131,0.424,0.273,0.649,0.401c11.916,6.832,22.289,5.753,30.074,0.436    c1.39-9.15,2.623-16.592,2.623-16.592l-32.173,6.621C1926.216,822.563,1925.743,826.377,1925.043,831.696z"/>
		<path style="fill:#F7A491;" d="M1932.698,748.024c0,0-12.635,3.552-19.921,16.1c-7.285,12.547-10.919,48.582,15.899,63.958    c26.818,15.376,45.854-9.259,45.043-32.307C1972.908,772.729,1966.487,742.242,1932.698,748.024z"/>
		<path style="fill:#F7A491;" d="M1979.646,785.886c0.298,5.99-2.267,10.988-5.725,11.163c-3.46,0.175-6.505-4.54-6.803-10.53    c-0.298-5.99,2.266-10.988,5.725-11.163C1976.302,775.181,1979.348,779.895,1979.646,785.886z"/>
		<path style="fill:#B75742;" d="M1936.495,747.076c0,0-14.458,37.689-28.607,41.706c-14.149,4.017-13.019,22.556-13.019,22.556    s-1.811-42.852,11.113-53.357C1918.907,747.478,1936.495,747.076,1936.495,747.076z"/>
		<path style="fill:#F7A491;" d="M1913.957,796.156c2.182,5.892,0.751,11.873-3.196,13.361c-3.947,1.488-8.916-2.082-11.099-7.973    c-2.182-5.892-0.751-11.874,3.196-13.361C1906.806,786.696,1911.774,790.266,1913.957,796.156z"/>
	</g>
    <g>
		<g>
			<g>
				<path style="fill:#F48C7F;" d="M1575.462,861.377c0,0-43.799-78.173-54.455-94.79c-10.656-16.617-38.415-82.65-39.407-85.253      c-0.992-2.602,19.117-33.852,14.628-34.922c-4.489-1.07-9.455,16.476-14.244,14.379c-4.789-2.096-18.778-44.334-21.507-42.239      c-5.106,3.921,7.54,26.201,4.818,27.605c-2.722,1.404-10.967-24.514-16.313-23.751c-5.346,0.763,10.166,23.755,8.671,25.786      c-1.495,2.031-17.599-19.633-20.513-15.014c-1.582,2.507,14.807,18.911,11.659,20.446c-3.147,1.536-17.726-9.052-19.27-5.998      c-1.544,3.053,13.482,7.234,17.976,15.466c4.493,8.232,12.146,11.79,15.324,27.033c3.178,15.243,7.927,70.403,24.205,97.923      c16.278,27.52,52.075,88.428,52.075,88.428L1575.462,861.377z"/>
                <g>
					<path style="fill:#F48C7F;" d="M1769.584,1238.614c0,0-3.564-4.448-4.635-6.018c-1.255-1.841-4.589-7.646-4.589-7.646       s-10.668-20.766-9.068-21.431c1.599-0.665,5.418,1.877,6.525,2.928s2.505,2.174,3.613,3.224c1.108,1.05,2.804,1.096,4.208-0.19       c1.404-1.285-2.103-6.434-3.668-7.971c-4.883-4.793-20.511-14.973-22.119-16.121c-1.901-1.357-13.77-40.783-18.91-53.967       c0,0,0.004-0.002,0.006-0.002c-7.771-21.833-14.664-44.664-15.476-46.98l-4.894-99.124l-37.029-12.341       c0,0,3.887,110.084,4.71,115.566c0.392,2.609,22.322,51.814,22.342,51.808c12.325,23.546,23.246,44.266,25.229,48.307       c0,0,2.688,13.677,3.886,22.487c1.197,8.811,5.838,16.438,6.555,18.86c0.105,0.357,2.119,8.835,8.23,17.616       c5.267,7.568,3.746-2.08,3.746-2.08s-7.235-15.818-5.89-16.192c1.036-0.288,4.478,8.591,10.218,17.027       c1.476,2.169,2.94,4.304,4.302,6.255c3.572,5.119,7.743,4.337,4.86-1.632c-1.018-2.108-2.794-5.565-4.41-7.847       c-1.745-2.464-2.55-5.304-3.7-7.604c-2.282-4.567-4.004-7.868-3.763-7.862c0.311,0.008,0.498-1.229,2.136,1.024       c1.97,2.708,4.878,9.409,8.084,13.163c1.817,2.127,5.345,6.811,5.345,6.811s6.549,6.955,7.037,6.678       c2.642-1.5-0.619-7.84-3.47-10.401c-0.97-2.578-4.82-7.397-4.82-7.397s-5.592-11.532-3.972-12.373       c1.33-0.691,20.053,24.264,22.596,22.571C1774.876,1246.377,1769.584,1238.614,1769.584,1238.614z"/>
				</g>
                <path style="fill:#184655;" d="M1703.354,852.454c0.897-21.622-2.287-42.973-11.961-63.104      c-8.323-17.319-28.917-27.146-47.697-27.171c-59.635-0.077-67.218,78.715-105.179,109.108      c-11.599,9.286-24.564,16.85-35.541,26.865c-40.528,36.981-22.272,105.437,14.943,137.857      c25.824,22.498,66.412,35.281,98.241,17.692c16.614-9.18,29.228-24.44,38.213-41.161c12.753-23.731,20.974-51.112,30.044-76.404      C1694.072,909.218,1702.162,881.193,1703.354,852.454z"/>
                <path style="fill:#F7A491;" d="M1516.94,1548.546c0,0-4.201,29.085-11.429,38.469c-2.426,3.15-6.858,7.134-9.767,12.827      c-4.528,8.862-2.024,22.057,1.315,29.322c1.715,3.731-0.121,3.719,3.784,4.921c11.561,3.56,23.86-2.435,28.783-13.485      c2.75-6.173,5.162-14.406,5.647-24.782c1.234-26.407,9.463-39.834,9.463-39.834L1516.94,1548.546z"/>
                <path style="fill:#F7A491;" d="M1643.394,1561.848c0,0,2.594,32.795,0.489,43.453c-1.128,5.708-7.406,17.456-4.526,22.826      c2.88,5.371,6.172,6.714,6.172,6.714l74.645,1.2c4.066,0.064,1.379-2.546-1.899-4.952c-5.366-3.938-9.696-6.541-26.838-14.815      c-1.117-0.54-5.188-3.123-6.656-4.018c-3.722-2.269-7.459-5.838-10.677-9.414c-5.359-5.955-5.828-34.835-5.828-34.835      L1643.394,1561.848z"/>
                <path style="fill:#3C8F7C;" d="M1701.735,1125.92c0,0,9.399,53.248,3.228,88.156c-6.171,34.908-35.794,358.482-35.794,358.482      l-32.919,1.853c0,0-6.9-135.164-5.666-153.96c1.234-18.797,11.003-50.253,11.003-50.253l-3.276-109.13l41.54-143.366      L1701.735,1125.92z"/>
                <path style="fill:#50BFA5;" d="M1604.985,1114.722c0,0-25.921,38.936-32.092,71.159c-6.171,32.223,4.53,131.252-7.342,173.479      c-6.427,22.857-30.785,58.158-34.487,87.695c-3.703,29.538-18.229,106.91-18.229,106.91l32.904,6.51l76.47-193.232      l59.983-174.654l15.366-89.95L1604.985,1114.722z"/>
                <path style="fill:#F7CC7F;" d="M1625.968,893.188c0,0-34.319-2.182-47.896,12.587c-13.578,14.769,30.119,131.599,32.587,150.397      c2.468,18.796-12.585,68.775-12.585,68.775s80.62,16.189,103.662,0.973c0,0,2.469-135.165,0-148.591      c-2.469-13.427-23.042-68.03-27.979-73.401C1668.819,898.557,1625.968,893.188,1625.968,893.188z"/>
                <path style="fill:#F7A491;" d="M1637.394,847.421c0,0-0.178,1.009-0.497,2.726c-1.53,8.234-7.423,35.551-11.404,43.061      c-4.81,9.075,16.469,38.02,36.951,34.487c6.097-1.052-5.153-26.595-4.613-29.301c1.035-5.18,2.438-12.245,3.874-19.49      c0.81-4.087,1.631-8.231,2.401-12.125c2.19-11.068,3.977-20.121,3.977-20.121L1637.394,847.421z"/>
                <path style="fill:#F47458;" d="M1636.897,850.146c0.319-1.717,0.497-2.726,0.497-2.726l30.691-0.764      c0,0-1.787,9.053-3.977,20.121c-0.767,3.873-1.582,7.992-2.388,12.057c-4.738-0.696-9.689-2.995-14.654-7.332      c-5.412-4.728-8.959-10.409-11.1-16.476C1636.344,853.092,1636.659,851.423,1636.897,850.146z"/>
                <path style="fill:#F7A491;" d="M1658.05,777.8c0,0-14.466-1.668-23.533,10.036c-9.068,11.704-18.841,47.899,3.684,67.578      c22.525,19.678,44.781-2.596,48.081-26.213C1689.583,805.582,1690.865,776.947,1658.05,777.8z"/>
                <path style="fill:#F7A491;" d="M1692.946,828.851c-2.689,5.216-7.202,8.104-10.08,6.451c-2.878-1.653-3.032-7.222-0.344-12.438      c2.689-5.216,7.202-8.105,10.08-6.452C1695.481,818.065,1695.635,823.635,1692.946,828.851z"/>
                <path style="fill:#184655;" d="M1659.668,773.93c0,0-19.327,34.42-33.152,36.01c-13.825,1.591-15.641,19.88-15.641,19.88      s4.943-42.143,18.63-50.27C1643.193,771.422,1659.668,773.93,1659.668,773.93z"/>
                <path style="fill:#B75742;" d="M1531.868,1614.787c-17.932,3.263-29.865-7.205-36.073-15.043      c-4.558,8.879-6.782,22.127-3.429,29.42c2.953,6.424,11.582,6.24,18.376,6.492c7.183,0.266,12.742-3.717,16.307-9.96      C1528.713,1622.781,1530.43,1619.15,1531.868,1614.787z"/>
                <path style="fill:#B75742;" d="M1684.77,1612.249c-19.741,5.056-34.334,1.618-42.497-1.666      c-2.105,5.954-4.896,13.424-3.416,17.732c1.813,5.274,4.393,6.467,6.672,6.526c18.032,0.472,66.05,1.115,79.799,1.295      c1.92,0.024,2.979-2.215,1.745-3.686C1723.663,1628.387,1686.24,1613.146,1684.77,1612.249z"/>
                <path style="fill:#F7A491;" d="M1630.142,818.589c1.124,6.112-1.137,11.718-5.051,12.52c-3.914,0.802-7.998-3.503-9.123-9.615      c-1.124-6.112,1.137-11.718,5.051-12.52C1624.933,808.172,1629.017,812.477,1630.142,818.589z"/>
                <path style="fill:#F7CC7F;" d="M1563.34,836.042c0,0,48.448,51.993,55.651,72.946c7.203,20.953-7.023,50.928-26.667,52.237      c-19.644,1.31-63.36-92.281-63.36-92.281L1563.34,836.042z"/>
			</g>
		</g>
	</g>

	<g>
		<path style="fill:#13375B;" d="M2097.94,1067.87c0,0,16.81-6.093,27.675,10.938c10.863,17.031,4.991,15.416,10.277,23.931    c5.285,8.516,7.826,32.72,9.652,45.807c18.633,133.459-204.252,144.273-117.216-25.84c8.163-15.955,15.069-25.546,22.409-42.576    C2058.08,1063.099,2089.131,1063.76,2097.94,1067.87z"/>
		<path style="fill:#F7CC7F;" d="M2050.256,1192.545l-22.478-7.852c0,0-8.923,11.399-11.598,39.924c-2.675,28.525,0,45.295,0,45.295    h25.426L2050.256,1192.545z"/>
		<path style="fill:#F7CC7F;" d="M2095.289,1177.233c-7.623,0.786-64.35-4.603-67.511,7.46    c-16.991,64.841,6.374,154.36,12.347,160.332c5.973,5.973,103.457-13.475,103.457-13.475S2158.875,1170.676,2095.289,1177.233z"/>
		<g>
			<path style="fill:#F7A491;" d="M2172.711,1110.766c0,0-6.262-2.984-11.959-13.535c-3.654-6.769-14.517-15.445-9.995-16.848     c4.521-1.403,11.45,10.041,12.749,6.763c1.297-3.277-11.64-28.054-7.542-29.324c4.097-1.271,14.823,22.828,15.983,19.896     s-10.953-23.99-5.16-25.787s12.048,25.92,15.156,24.955c3.109-0.964-1.42-22.111,3.244-23.559     c4.662-1.446,4.004,26.152,5.681,25.356c0.903-0.43,5.042-13.797,7.574-12.794c2.863,1.133-4.865,28.572-1.435,34.619     c3.432,6.048,30.898,81.235,21.509,90.625c-10.233,10.233-75.349,33.702-88.976,29.666     c-13.627-4.035-21.434-17.502-18.156-25.782s67.652-26.882,68.682-29.48C2181.095,1162.937,2172.711,1110.766,2172.711,1110.766z     "/>
			<path style="fill:#F48C7F;" d="M2177.932,1087.017c1.97-0.085,3.906,0.356,5.771,1.041c0.272,0.193,6.447,1.999,9.104,8.818     C2189.874,1093.388,2186.609,1089.528,2177.932,1087.017z"/>
		</g>
		<path style="fill:#F79C8D;" d="M2228.169,1541.084c0,0,12.594,51.362,21.981,59.428c9.387,8.064,39.996,23.49,31.986,25.15    c-8.01,1.658-67.287,3.037-65.662-6.85s3.33-16.191,3.33-16.191l-15.68-36.687L2228.169,1541.084z"/>
		<path style="fill:#13375B;" d="M2286.122,1627.768c-14.456,1.438-56.667,2.957-68.966,1.386c0,0-2.307-0.454-0.682-10.341    c0.397-2.417,0.8-4.62,1.18-6.569c11.154,2.931,35.446-3.307,45.07-4.585c10.453,5.006,22.236,12.479,26.037,13.104    C2294.266,1621.667,2294.262,1626.958,2286.122,1627.768z"/>
		<path style="fill:#F79C8D;" d="M2089.939,1584.146c0,0-1.322,12.993-1.322,18.719c0,5.726,5.334,21.876,2.863,24.348    c-2.472,2.471-73.078,2.165-73.078-0.159c0-2.324,12.479-9.373,29.436-14.219c16.957-4.844,22.722-23.623,18.316-34.414    L2089.939,1584.146z"/>
		<path style="fill:#13375B;" d="M2017.266,1627.212c0-2.167,11.578-8.821,26.574-13.403c15.979,5.4,38.17,0.944,46.49-0.646    c2.545,6.659,3.358,12.972,2.049,14.281C2089.908,1629.916,2017.266,1629.536,2017.266,1627.212z"/>
		<path style="fill:#FAE0B2;" d="M2166.576,1367.006l12.663,11.231c0,0,14.255,38.597,15.085,41.145    c1.154,3.542,47.33,152.345,47.33,152.345l-32.17,11.576c0,0-31.896-62.141-37.182-83.723s-58.14-111.873-58.14-111.873    L2166.576,1367.006z"/>
		<path style="fill:#FAE0B2;" d="M2110.641,1389.909l-15.416,197.22h-35.676c0,0-12.773-147.597-8.369-199.422L2110.641,1389.909z"/>
		<path style="fill:#50BFA5;" d="M2048.097,1191.269c0,0,22.683-5.946,48.451-7.378c13.341-0.741,31.27,2.092,31.27,2.092    s16.296,36.557,21.142,66.508c4.844,29.95,31.271,125.967,31.271,125.967s-53.734,41.402-132.134,14.095V1191.269z"/>
		<path style="fill:#F79C8D;" d="M2109.172,1158.528c0,0-0.705,23.385,1.49,25.581c2.197,2.196,5.264,5.838,2.033,11.416    c-3.23,5.579-17.251,2.02-23.784-1.174c-6.271-3.065-10.318-8.768-10.318-8.768l3.271-37.039L2109.172,1158.528z"/>
		<path style="fill:#B75742;" d="M2099.849,1168.219c-4.503-1.576-12.37-4.619-18.442-14.487l0.458-5.187l27.308,9.983    c0,0-0.172,5.705-0.082,11.744C2105.264,1170.114,2101.996,1168.971,2099.849,1168.219z"/>
		<path style="fill:#F79C8D;" d="M2077.054,1122.1c0,0-0.664-13.747-9.106-11.077c-8.445,2.67-2.01,23.419,4.99,22.736    C2079.938,1133.077,2077.054,1122.1,2077.054,1122.1z"/>
		<path style="fill:#F79C8D;" d="M2103.593,1077.193c0,0,13.214-0.294,19.967,9.982c6.753,10.277,14.095,39.641,2.937,59.901    c-11.158,20.26-25.398,15.269-31.271,13.213c-5.873-2.055-17.471-6.606-23.344-25.546S2070.266,1073.229,2103.593,1077.193z"/>
		<path style="fill:#355389;" d="M2050.623,1190.649c6.023,13.6,20.846,42.885,20.164,75.184    c-0.715,33.833-26.16,55.792-26.16,55.792v16.724c0,0,28.082-4.424,38.817-48.139c10.735-43.714-15.095-103.102-15.095-103.102    s-3.686-2.63-10.994-0.589C2052.483,1187.879,2050.623,1190.649,2050.623,1190.649z"/>
		<path style="fill:#355389;" d="M2112.309,1183.768c0,0,21.102,113.575,48.471,120.935l-4.762-19.362c0,0-28.2-91.887-28.2-99.357    S2112.309,1183.768,2112.309,1183.768z"/>
		<g>
			<polygon style="fill:#B75742;" points="2169.402,1378.108 2087.525,1378.108 2087.525,1284.807 2169.402,1288.445    "/>
			<g>
				<path style="fill:#B75742;" d="M2169.402,1281.168h-78.238c-2.01,0-3.639,1.629-3.639,3.639l0,0c0,2.01,1.629,3.639,3.639,3.639      h78.238l-0.066-0.025C2163.931,1286.392,2163.96,1283.184,2169.402,1281.168z"/>
				<path style="fill:#FAE0B2;" d="M2167.166,1282.245h-73.309c-1.415,0-2.561,1.146-2.561,2.562l0,0      c0,1.414,1.146,2.561,2.561,2.561h73.307C2164.682,1285.781,2164.685,1283.83,2167.166,1282.245z"/>
			</g>
			<g>
				<path style="fill:#13375B;" d="M2133.516,1282.77h-5.155c-1.108,0-2.007,0.898-2.007,2.007v0.18h7.162V1282.77z"/>
				<path style="fill:#355389;" d="M2128.571,1282.776c1.231-0.001,3.072,1.042,4.11,2.329l12.229,15.166l7.182-0.004      l-11.629-14.424c-1.369-1.697-3.795-3.072-5.42-3.071L2128.571,1282.776z"/>
			</g>
		</g>
		<path style="fill:#F79C8D;" d="M2048.097,1191.269c0,0,6.175,6.187,12.782,29.651c6.605,23.465,9.975,78.404,15.699,84.13    c5.727,5.726,43.164,35.529,49.918,34.502c6.754-1.028,21.875-18.646,26.573-18.646s4.111,4.257,1.762,6.606    c-2.349,2.35-5.212,5.065-3.817,6.46s1.395,1.395,1.395,1.395s20.922-5.505,24.445-3.45c3.523,2.056-3.377,6.9-3.377,10.424    c0,3.525,0.863,3.46,0.441,7.341c-0.423,3.881-1.395,6.974-3.23,8.81c-1.836,1.835-24.959,8.515-47.568,5.432    s-50.211-13.947-70.618-39.2c-20.407-25.252-16.32-104.619-15.856-112.533C2037.82,1192.149,2048.097,1191.269,2048.097,1191.269z    "/>
	</g>

</g>
</svg>